<svg xmlns="http://www.w3.org/2000/svg" width="432" height="429" style="shape-rendering:geometricPrecision;text-rendering:geometricPrecision;image-rendering:optimizeQuality;fill-rule:evenodd;clip-rule:evenodd"><path style="opacity:1" fill="#e8bcde" d="M225.5 16.5c1.22 1.782 1.886 3.782 2 6-4 .333-4 .667 0 1 .167 39.668 0 79.335-.5 119-2.371.146-4.704 1.146-7 3l-5-1a11.38 11.38 0 0 0-2.5 2 183.078 183.078 0 0 0 27 1 4.934 4.934 0 0 0 .5 3l1-1a338.073 338.073 0 0 0 14.5 3h-50c-5.375-1.695-5.042-2.861 1-3.5l-1-1c-4.848-.059-9.515-.726-14-2a163.202 163.202 0 0 0 16-2 34.041 34.041 0 0 1-7.5-1.5 654.206 654.206 0 0 0-2.5-55l2-16a290.6 290.6 0 0 1-2-24 3847.98 3847.98 0 0 1 2-31h26z"/><path style="opacity:1" fill="#e3bce3" d="M274.5 22.5a202.189 202.189 0 0 1 26 10h-4a32.238 32.238 0 0 1-10-4c-1.297 1.867-2.797 2.2-4.5 1a116.564 116.564 0 0 0-11.5 3 553.178 553.178 0 0 0-1 47h-4c.649 21.732-.018 43.232-2 64.5.916.374 1.75.874 2.5 1.5 2.326-1.754 4.992-2.754 8-3 1.662-.112 2.829.554 3.5 2a188.035 188.035 0 0 1-16 4.5l2 3a32.462 32.462 0 0 1-8 .5 338.073 338.073 0 0 1-14.5-3l-1 1a4.934 4.934 0 0 1-.5-3c.108-1.723-.392-3.39-1.5-5l-.5-59.5a900.285 900.285 0 0 1 2-60c-3.149-.776-3.649-2.276-1.5-4.5 1.487.753 1.654 1.586.5 2.5 11.628-1.27 23.128-.104 34.5 3.5 1.03-.336 1.53-1.003 1.5-2z"/><path style="opacity:1" fill="#ebbcd8" d="M238.5 16.5h-39a3847.98 3847.98 0 0 0-2 31 290.6 290.6 0 0 0 2 24l-2 16a654.206 654.206 0 0 1 2.5 55 34.041 34.041 0 0 0 7.5 1.5 163.202 163.202 0 0 1-16 2c4.485 1.274 9.152 1.941 14 2l1 1c-6.042.639-6.375 1.805-1 3.5-5.526-.321-10.86.012-16 1a112.97 112.97 0 0 0-15 .5c-.566.995-1.233 1.828-2 2.5-1.553 3.843-3.553 4.343-6 1.5a4.933 4.933 0 0 0 1-2.5 89.578 89.578 0 0 1-3-8.5 112.18 112.18 0 0 0 1-19.5 9.86 9.86 0 0 1-6-1c2.495-1.664 4.495-3.83 6-6.5a18.453 18.453 0 0 0-6-.5v-3h3c-.117-1.984.55-3.65 2-5a64.873 64.873 0 0 0 1-16h-3v-8c-1.175.219-2.175-.114-3-1 2.495-1.664 4.495-3.83 6-6.5a20.211 20.211 0 0 1-6-1.5c2.495-1.664 4.495-3.83 6-6.5a20.211 20.211 0 0 1-6-1.5c3.145-1.496 5.978-1.162 8.5 1a38.293 38.293 0 0 0 2.5-6.5 294.88 294.88 0 0 1-1-33.5c-2.146.378-4.313.712-6.5 1-1.955-.14-3.455-.974-4.5-2.5 4.86-.22 9.527-1.053 14-2.5a31.81 31.81 0 0 1 6.5 2l7.5-1.5a966.643 966.643 0 0 1-7.5-3.5 3.942 3.942 0 0 0-2 1 144.556 144.556 0 0 1-7.5-2v-3c8.404-2.235 17.071-3.735 26-4.5 14.506-.828 28.839-.66 43 .5z"/><path style="opacity:1" fill="#e5bcdf" d="M225.5 16.5h13a188.994 188.994 0 0 1 36 6c.03.997-.47 1.664-1.5 2-11.372-3.604-22.872-4.77-34.5-3.5 1.154-.914.987-1.747-.5-2.5-2.149 2.224-1.649 3.724 1.5 4.5a900.285 900.285 0 0 0-2 60l.5 59.5c1.108 1.61 1.608 3.277 1.5 5a183.078 183.078 0 0 1-27-1 11.38 11.38 0 0 1 2.5-2l5 1c2.296-1.854 4.629-2.854 7-3 .5-39.665.667-79.332.5-119-4-.333-4-.667 0-1-.114-2.218-.78-4.218-2-6z"/><path style="opacity:1" fill="#eebcd5" d="M169.5 23.5c2.393.71 4.893 1.377 7.5 2a3.942 3.942 0 0 1 2-1c2.51 1.184 5.01 2.351 7.5 3.5l-7.5 1.5a31.81 31.81 0 0 0-6.5-2c-4.473 1.447-9.14 2.28-14 2.5 1.045 1.526 2.545 2.36 4.5 2.5 2.187-.288 4.354-.622 6.5-1a294.88 294.88 0 0 0 1 33.5 38.293 38.293 0 0 1-2.5 6.5c-2.522-2.162-5.355-2.496-8.5-1a20.211 20.211 0 0 0 6 1.5c-1.505 2.67-3.505 4.836-6 6.5a20.211 20.211 0 0 0 6 1.5c-1.505 2.67-3.505 4.836-6 6.5.825.886 1.825 1.219 3 1v8h3a64.873 64.873 0 0 1-1 16c-1.45 1.35-2.117 3.016-2 5h-3v3a18.453 18.453 0 0 1 6 .5c-1.505 2.67-3.505 4.836-6 6.5a9.86 9.86 0 0 0 6 1 112.18 112.18 0 0 1-1 19.5 89.578 89.578 0 0 0 3 8.5 4.933 4.933 0 0 1-1 2.5c2.447 2.843 4.447 2.343 6-1.5a198.067 198.067 0 0 0-5 15l-9 20c-2.127-.898-3.294-2.564-3.5-5-.895 2.875-1.728 3.208-2.5 1 .059-2.267.892-2.933 2.5-2 .5-51.332.667-102.666.5-154a8.435 8.435 0 0 1-4-.5l2-1c-.881-.708-1.547-1.542-2-2.5.111-.617.444-1.117 1-1.5a46.48 46.48 0 0 1 17-2.5z"/><path style="opacity:1" fill="#f0bdd1" d="M151.5 27.5c.453.958 1.119 1.792 2 2.5l-2 1a8.435 8.435 0 0 0 4 .5c.167 51.334 0 102.668-.5 154-1.608-.933-2.441-.267-2.5 2 .772 2.208 1.605 1.875 2.5-1 .206 2.436 1.373 4.102 3.5 5a164.416 164.416 0 0 1-10.5 25c-.608-1.566-1.442-2.9-2.5-4-1.545-6.077-3.878-11.744-7-17a43.521 43.521 0 0 0-3-10 17.758 17.758 0 0 0-1.5-7 7581.6 7581.6 0 0 1-10.5-25v-4h-5l1-6c-2.815.626-5.315 1.96-7.5 4-.775-2.449.058-4.116 2.5-5 1-24.991 1.333-49.991 1-75a184.23 184.23 0 0 0 3-19.5c-6.147-.9-12.147-.4-18 1.5 5.552-4.856 11.885-8.523 19-11 1.967-.24 3.801.094 5.5 1 7.754-6.416 16.587-10.416 26.5-12z"/><path style="opacity:1" fill="#e1bbe8" d="M296.5 32.5c.17 1.322-.163 2.489-1 3.5l1.5 1.5a240.38 240.38 0 0 1 0 31l-1 2c-4.066-.964-8.233-1.297-12.5-1-.167 25.335 0 50.669.5 76 3.462 3.033 3.129 4.367-1 4a22.981 22.981 0 0 1-2 5c-.671-.752-1.504-1.086-2.5-1h-89c5.14-.988 10.474-1.321 16-1h50a32.462 32.462 0 0 0 8-.5l-2-3a188.035 188.035 0 0 0 16-4.5c-.671-1.446-1.838-2.112-3.5-2-3.008.246-5.674 1.246-8 3a9.454 9.454 0 0 0-2.5-1.5c1.982-21.268 2.649-42.768 2-64.5h4a553.178 553.178 0 0 1 1-47 116.564 116.564 0 0 1 11.5-3c1.703 1.2 3.203.867 4.5-1a32.238 32.238 0 0 0 10 4z"/><path style="opacity:1" fill="#dfbcea" d="M296.5 32.5h4c10.417 3.707 20.084 8.707 29 15-4.854-1.093-9.187-3.26-13-6.5a23.901 23.901 0 0 0-9-2.5c1.028 3.214 3.362 5.048 7 5.5l-6 3c.916.374 1.75.874 2.5 1.5a2555.423 2555.423 0 0 0-1.5 110h5a13.116 13.116 0 0 1 1-7 61.568 61.568 0 0 1 2 10 12.93 12.93 0 0 0-5 .5c.837 1.011 1.17 2.178 1 3.5a19.22 19.22 0 0 0-1 6l-2 4c-2.536 4.81-3.87 10.144-4 16-1.175-.219-2.175.114-3 1 1.062 2.603 1.228 5.27.5 8-2.994 8.18-4.828 16.513-5.5 25a51.569 51.569 0 0 0-1 7v1l-2 3c-.904.709-1.237 1.709-1 3h-3a12.992 12.992 0 0 0 1 5.5c-1.815 1.7-2.815 3.866-3 6.5-1.005 7.684-2.005 15.351-3 23h-1a2.428 2.428 0 0 0-.5-2l-3 5c-.442-2.179-1.442-2.845-3-2-.089-1.613.745-2.78 2.5-3.5l-1-1a4.934 4.934 0 0 1 3-.5c-.167-31.335 0-62.668.5-94 3.291-7.271 4.291-14.938 3-23-1.163 1.785-1.83 3.785-2 6a71.363 71.363 0 0 0-6.5 8 9.425 9.425 0 0 0-3-3l-1 1.5a1005.775 1005.775 0 0 1-4 15.5c-1.7-.126-3.2-.793-4.5-2-1.642.478-2.809 1.478-3.5 3-1.561 2.473-3.561 4.473-6 6l14-19a120.431 120.431 0 0 0 7-13c.904-.709 1.237-1.709 1-3 .996-.086 1.829.248 2.5 1a22.981 22.981 0 0 0 2-5c4.129.367 4.462-.967 1-4-.5-25.331-.667-50.665-.5-76 4.267-.297 8.434.036 12.5 1l1-2a240.38 240.38 0 0 0 0-31l-1.5-1.5c.837-1.011 1.17-2.178 1-3.5z"/><path style="opacity:1" fill="#e6c0cf" d="M169.5 20.5v3a46.48 46.48 0 0 0-17 2.5c-.556.383-.889.883-1 1.5-9.913 1.584-18.746 5.584-26.5 12-1.699-.906-3.533-1.24-5.5-1 15.652-8.553 32.319-14.553 50-18z"/><path style="opacity:1" fill="#dcbcef" d="M329.5 47.5a102.301 102.301 0 0 1 22 16 8.435 8.435 0 0 1-4-.5 1551.11 1551.11 0 0 0-12.5-8.5l-1.5 1 2 3c3.121 2.227 6.454 3.894 10 5v113c.172.992-.162 1.658-1 2h-3v-3h-8a407.946 407.946 0 0 1-1 18c-1.322-.17-2.489.163-3.5 1a18.991 18.991 0 0 1-1.5-8 340.414 340.414 0 0 0 6-23 16.873 16.873 0 0 1-8-1c1.379-1.363 1.213-2.363-.5-3-2.256 1.585-4.756 2.252-7.5 2a61.568 61.568 0 0 0-2-10 13.116 13.116 0 0 0-1 7h-5c-.289-36.702.211-73.369 1.5-110a9.465 9.465 0 0 0-2.5-1.5l6-3c-3.638-.452-5.972-2.286-7-5.5a23.901 23.901 0 0 1 9 2.5c3.813 3.24 8.146 5.407 13 6.5z"/><path style="opacity:1" fill="#f5bdca" d="M115.5 67.5h-12v4h-8c-.167 17.337 0 34.67.5 52 4.383 2.748 4.217 4.082-.5 4-.166 5.344 0 10.677.5 16 .687 2.926 2.52 4.259 5.5 4v5c6.854-.324 13.521.009 20 1h-24c-.624.417-.957 1.084-1 2 .649 5.678 2.982 10.345 7 14h1c1.054 5.189 3.054 9.856 6 14l2 8c-1.956-2.397-3.79-2.397-5.5 0-.918-1.876-2.418-2.876-4.5-3-2.688-1.725-2.355-3.058 1-4 .886-.825 1.219-1.825 1-3-2.429.085-4.429 1.085-6 3-2.478-1.222-3.478-3.222-3-6h-4c-.923-.803-1.923-.97-3-.5a78.953 78.953 0 0 0-8 6.5h-5c-1.086-.12-1.753-.787-2-2a54.419 54.419 0 0 1 6-6.5 4.458 4.458 0 0 0-2-1.5 391.832 391.832 0 0 0-13.5 13l-.5-2a30.941 30.941 0 0 0 2.5-6 20.652 20.652 0 0 0 7-5 550.236 550.236 0 0 0-1.5-31 290.578 290.578 0 0 1 2-24 192.766 192.766 0 0 1-1.5-39c1.011-.837 2.178-1.17 3.5-1v-4h4c.371-4.852-.962-5.685-4-2.5-1.135.75-2.135.583-3-.5a186.2 186.2 0 0 0 2-3 125.963 125.963 0 0 1 26-20c5.853-1.9 11.853-2.4 18-1.5a184.23 184.23 0 0 1-3 19.5z"/><path style="opacity:1" fill="#d9bcf2" d="M351.5 63.5c12.377 8.71 22.71 19.376 31 32a4.932 4.932 0 0 1-3-.5l-7-5 1-1a168.583 168.583 0 0 1-6.5-10.5c-1.626.597-3.459.597-5.5 0l2-2a46.62 46.62 0 0 0-5.5-6l-3 3c-1.11-1.537-2.61-2.204-4.5-2 .591 3.114 2.258 5.614 5 7.5l-3 1.5a1128.907 1128.907 0 0 0 0 95c1.022.355 1.689 1.022 2 2-.65.304-1.317.637-2 1-2.01-1.671-4.343-2.338-7-2v-113c-3.546-1.106-6.879-2.773-10-5l-2-3 1.5-1a1551.11 1551.11 0 0 1 12.5 8.5 8.435 8.435 0 0 0 4 .5z"/><path style="opacity:1" fill="#f2bdcc" d="M115.5 67.5c.333 25.009 0 50.009-1 75-2.442.884-3.275 2.551-2.5 5 2.185-2.04 4.685-3.374 7.5-4l-1 6h5v4h-2c-6.479-.991-13.146-1.324-20-1v-5c-2.98.259-4.813-1.074-5.5-4a128.43 128.43 0 0 1-.5-16c4.717.082 4.883-1.252.5-4-.5-17.33-.667-34.663-.5-52h8v-4h12z"/><path style="opacity:1" fill="#d7bcf6" d="M382.5 95.5a66.37 66.37 0 0 1 11 16c-1.436-1.819-3.103-2.152-5-1 1.402 1.342 1.069 2.176-1 2.5a18.324 18.324 0 0 1 4 7 32.07 32.07 0 0 0-4 5.5c.333 1.667 1.333 2.667 3 3 1 20.989 1.333 41.989 1 63-1.478-.262-2.811.071-4 1l4 6c-3.471.502-6.471 1.836-9 4a6.846 6.846 0 0 0-4-1c-1.73-.526-3.064-1.526-4-3a19.49 19.49 0 0 1-3-7c-3.36.71-5.193-.624-5.5-4l-1 1a9.175 9.175 0 0 0-4.5-2 308.607 308.607 0 0 1-4-3c-.375-2.198-1.042-4.198-2-6-.311-.978-.978-1.645-2-2a1128.907 1128.907 0 0 1 0-95l3-1.5c-2.742-1.886-4.409-4.386-5-7.5 1.89-.204 3.39.463 4.5 2l3-3a46.62 46.62 0 0 1 5.5 6l-2 2c2.041.597 3.874.597 5.5 0a168.583 168.583 0 0 0 6.5 10.5l-1 1 7 5c.948.483 1.948.65 3 .5z"/><path style="opacity:1" fill="#f8bdc5" d="M74.5 69.5a186.2 186.2 0 0 1-2 3c.865 1.083 1.865 1.25 3 .5 3.038-3.185 4.371-2.352 4 2.5h-4v4c-1.322-.17-2.489.163-3.5 1a192.766 192.766 0 0 0 1.5 39 290.578 290.578 0 0 0-2 24 550.236 550.236 0 0 1 1.5 31 20.652 20.652 0 0 1-7 5 30.941 30.941 0 0 1-2.5 6l.5 2a391.832 391.832 0 0 1 13.5-13 4.458 4.458 0 0 1 2 1.5 54.419 54.419 0 0 0-6 6.5c.247 1.213.914 1.88 2 2v3a12.93 12.93 0 0 0-5 .5c1.11 1.813.442 2.646-2 2.5.17 1.322-.163 2.489-1 3.5a26.107 26.107 0 0 0-5 3.5c-1.187-1.153-2.187-1.153-3 0-2.879-.936-5.212-2.603-7-5a872.232 872.232 0 0 0 0-83c1.217-2.567 2.883-4.9 5-7-.774-1.211-1.607-1.211-2.5 0-.283-3.242-1.117-3.576-2.5-1l-2-1a25.94 25.94 0 0 1-4 4.5 3.942 3.942 0 0 0 1 2 17.42 17.42 0 0 1-8 3.5c9.196-14.846 20.196-28.346 33-40.5a2.428 2.428 0 0 1 2-.5z"/><path style="opacity:1" fill="#fbbec4" d="M59.5 197.5c-1.924 3.092-4.591 5.259-8 6.5.457.414.79.914 1 1.5-1.276 1.145-2.609 1.145-4 0-3.752 2.794-6.086 6.461-7 11h-3v4a82.09 82.09 0 0 1-8-11c-.047-1.5.62-2.5 2-3 1.166-26.327 1.333-52.66.5-79-3.486 3.102-3.986 6.602-1.5 10.5a68.054 68.054 0 0 1-4 2c.836 1.243.503 2.41-1 3.5a5.575 5.575 0 0 0-3-1 179.336 179.336 0 0 1 16-32 17.42 17.42 0 0 0 8-3.5 3.942 3.942 0 0 1-1-2 25.94 25.94 0 0 0 4-4.5l2 1c1.383-2.576 2.217-2.242 2.5 1 .893-1.211 1.726-1.211 2.5 0-2.117 2.1-3.783 4.433-5 7a872.232 872.232 0 0 1 0 83c1.788 2.397 4.121 4.064 7 5z"/><path style="opacity:1" fill="#d4bcfa" d="M393.5 111.5c7.51 10.689 13.177 22.356 17 35 1.496 7.32 2.996 14.653 4.5 22 1.616 2.213 2.783 4.547 3.5 7 7.945 43.047 1.279 83.713-20 122a5.576 5.576 0 0 0-3 1 31.871 31.871 0 0 0-3 7c-1.603.188-2.937-.312-4-1.5a55.026 55.026 0 0 0 3-8.5 17.774 17.774 0 0 1-4-6c.333-1.667 1.333-2.667 3-3a353.238 353.238 0 0 0 .5-46 68.077 68.077 0 0 0-6.5-1l-2 2-2-4a5.576 5.576 0 0 1-3 1c1.719-2.719 4.053-4.719 7-6 .973 1.484 2.307 1.984 4 1.5-.837-1.011-1.17-2.178-1-3.5a300.549 300.549 0 0 0 8-5 17.774 17.774 0 0 0 4-6 71.452 71.452 0 0 0-6-8.5c-1.525-1.009-3.192-1.509-5-1.5a45.26 45.26 0 0 1-10-8 6.846 6.846 0 0 1 4 1c2.529-2.164 5.529-3.498 9-4l-4-6c1.189-.929 2.522-1.262 4-1 .333-21.011 0-42.011-1-63-1.667-.333-2.667-1.333-3-3a32.07 32.07 0 0 1 4-5.5 18.324 18.324 0 0 0-4-7c2.069-.324 2.402-1.158 1-2.5 1.897-1.152 3.564-.819 5 1z"/><path style="opacity:1" fill="#fbbec0" d="M38.5 220.5c2.38 1.737 4.047 4.07 5 7a6.845 6.845 0 0 0 4 1v3c-.397 1.025-1.063 1.192-2 .5-3.299-1.965-5.965-4.632-8-8a8.43 8.43 0 0 0-4-.5 20.093 20.093 0 0 0 1.5 6c2.578.869 4.412 2.535 5.5 5-1.193 1.884-2.86 2.384-5 1.5-.906-1.699-1.24-3.533-1-5.5-3.85.201-4.85 2.034-3 5.5a4.934 4.934 0 0 0 3 .5 7731.208 7731.208 0 0 1-2 51c-1.343 1.402-2.176 1.069-2.5-1-1.264-5.055-3.264-9.721-6-14-1.102-5.167-2.936-9.833-5.5-14-6.55-21.754-8.718-44.088-6.5-67 1.483-16.931 5.317-33.264 11.5-49a5.575 5.575 0 0 1 3 1c1.503-1.09 1.836-2.257 1-3.5a68.054 68.054 0 0 0 4-2c-2.486-3.898-1.986-7.398 1.5-10.5.833 26.34.666 52.673-.5 79-1.38.5-2.047 1.5-2 3a82.09 82.09 0 0 0 8 11z"/><path style="opacity:1" fill="#f28274" d="M97.5 153.5h24c1.575 2.047 2.575 4.381 3 7a9.82 9.82 0 0 1-3-4c-1.419-.951-3.085-1.284-5-1-2.814-.665-5.814-.998-9-1-3.413.017-6.413.684-9 2-.904-.709-1.237-1.709-1-3z"/><path style="opacity:1" fill="#bc75d9" d="M189.5 154.5v-1h89c.237 1.291-.096 2.291-1 3-13.292-1.982-26.959-2.649-41-2h-47z"/><path style="opacity:1" fill="#952ec1" d="M236.5 155.5c4.393-.043 4.726.457 1 1.5 2.064 1.018 2.398 2.351 1 4-1.626 1.819-3.626 3.152-6 4a53.326 53.326 0 0 1-8 9.5 60.931 60.931 0 0 1-11-.5c2.644-2.275 2.644-4.609 0-7a34.456 34.456 0 0 0 3-6.5c3.655-.832 7.321-1.665 11-2.5a10.258 10.258 0 0 1-4-1.5 43.117 43.117 0 0 1 13-1z"/><path style="opacity:1" fill="#9a2cb4" d="M191.5 155.5v-1h45v1a43.117 43.117 0 0 0-13 1 10.258 10.258 0 0 0 4 1.5c-3.679.835-7.345 1.668-11 2.5a34.456 34.456 0 0 1-3 6.5c2.644 2.391 2.644 4.725 0 7 3.652.499 7.318.665 11 .5h13v1a507.055 507.055 0 0 0-45 1h-1c3.584-1.618 7.584-2.618 12-3a3.647 3.647 0 0 0-1-1.5c2.92-1.162 5.92-2.328 9-3.5 1.428-3.002 1.095-5.835-1-8.5 2.667-.667 2.667-1.333 0-2l3-1a93.752 93.752 0 0 0-21-1.5h-1z"/><path style="opacity:1" fill="#a827b4" d="M192.5 155.5a93.752 93.752 0 0 1 21 1.5l-3 1c2.667.667 2.667 1.333 0 2 2.095 2.665 2.428 5.498 1 8.5a638.556 638.556 0 0 0-9 3.5c.457.414.791.914 1 1.5-4.416.382-8.416 1.382-12 3-2.086 2.283-3.586 4.95-4.5 8-1.872-1.938-2.705-4.271-2.5-7 2.655-7.316 5.322-14.649 8-22z"/><path style="opacity:1" fill="#ea5f3f" d="M116.5 155.5a112.97 112.97 0 0 0-15 .5c2.022 4.256 3.022 8.756 3 13.5h-1a152.896 152.896 0 0 0-5-13c2.587-1.316 5.587-1.983 9-2 3.186.002 6.186.335 9 1z"/><path style="opacity:1" fill="#cebded" d="M410.5 146.5c4.046 9.175 6.713 18.841 8 29-.717-2.453-1.884-4.787-3.5-7-1.504-7.347-3.004-14.68-4.5-22z"/><path style="opacity:1" fill="#8635c6" d="M236.5 155.5v-1c14.041-.649 27.708.018 41 2a120.431 120.431 0 0 1-7 13c.066-3.164 1.066-5.998 3-8.5a9.258 9.258 0 0 0-2-2.5 3.647 3.647 0 0 1 1-1.5c-5.218-1.563-10.551-1.896-16-1l4 1a4.457 4.457 0 0 0-2 1.5c1.141.925 1.141 1.759 0 2.5a68.3 68.3 0 0 0-18 9 30.786 30.786 0 0 1-3 4.5h-13a53.326 53.326 0 0 0 8-9.5c2.374-.848 4.374-2.181 6-4 1.398-1.649 1.064-2.982-1-4 3.726-1.043 3.393-1.543-1-1.5z"/><path style="opacity:1" fill="#fdb1b4" d="M97.5 153.5c-.237 1.291.096 2.291 1 3a152.896 152.896 0 0 1 5 13c-4.018-3.655-6.351-8.322-7-14 .043-.916.376-1.583 1-2z"/><path style="opacity:1" fill="#e63b64" d="M187.5 159.5c-2.134 1.203-3.468 3.037-4 5.5-1.325-.148-2.492.018-3.5.5l-1 7c-.576-2.624-1.91-3.291-4-2-3.22 4.619-5.886 9.619-8 15-.87-.608-1.37-1.441-1.5-2.5a82.949 82.949 0 0 0 2-11.5 112.817 112.817 0 0 0 8-15.5 72.367 72.367 0 0 1 12-.5v4z"/><path style="opacity:1" fill="#e05878" d="M189.5 153.5v1c.098 2.053-.569 3.72-2 5v-4a72.367 72.367 0 0 0-12 .5 112.817 112.817 0 0 1-8 15.5 198.067 198.067 0 0 1 5-15c.767-.672 1.434-1.505 2-2.5a112.97 112.97 0 0 1 15-.5z"/><path style="opacity:1" fill="#fdb4c0" d="M121.5 153.5h2a7581.6 7581.6 0 0 0 10.5 25 17.758 17.758 0 0 1 1.5 7l-6-12v-1a65 65 0 0 0-5-12c-.425-2.619-1.425-4.953-3-7z"/><path style="opacity:1" fill="#c6348a" d="M189.5 154.5h2v1l-10.5 26c-.949 1.593-2.115 2.926-3.5 4a8.43 8.43 0 0 1 .5-4 27.563 27.563 0 0 0 3.5-6 12.93 12.93 0 0 1 .5-5 42.494 42.494 0 0 0 5.5-11c1.431-1.28 2.098-2.947 2-5z"/><path style="opacity:1" fill="#f35b31" d="M116.5 155.5c1.915-.284 3.581.049 5 1 .262 1.478-.071 2.811-1 4-.925-1.141-1.759-1.141-2.5 0-.686 5.385-3.353 9.385-8 12l-1 4a20.992 20.992 0 0 1-2.5-6c-.457-.798-1.124-1.131-2-1 .022-4.744-.978-9.244-3-13.5a112.97 112.97 0 0 1 15-.5z"/><path style="opacity:1" fill="#7d3fc9" d="M313.5 165.5h17c.268 1.599-.066 2.932-1 4v-3h-15c.098 2.053-.569 3.72-2 5a19.22 19.22 0 0 1 1-6z"/><path style="opacity:1" fill="#f2553a" d="M121.5 156.5a9.82 9.82 0 0 0 3 4c-.29 3.285.377 6.285 2 9 .061 2.988-.605 5.821-2 8.5.255 1.326.922 2.326 2 3a15.256 15.256 0 0 0-1.5 4.5c-2.336-2.56-3.503-1.894-3.5 2-.094 2.412.906 4.245 3 5.5l-4.5 6.5c-.617-2.535-.117-4.868 1.5-7-1.545-.952-3.212-1.285-5-1-.897-3.461-2.897-6.127-6-8-2.946-4.144-4.946-8.811-6-14 .876-.131 1.543.202 2 1a20.992 20.992 0 0 0 2.5 6l1-4c4.647-2.615 7.314-6.615 8-12 .741-1.141 1.575-1.141 2.5 0 .929-1.189 1.262-2.522 1-4z"/><path style="opacity:1" fill="#e5655f" d="M124.5 160.5a65 65 0 0 1 5 12c-1.4-.6-2.4-1.6-3-3-1.623-2.715-2.29-5.715-2-9z"/><path style="opacity:1" fill="#7b38cd" d="M270.5 169.5c-4.333 1-7 3.667-8 8h-3a43.43 43.43 0 0 1 0-5 26.145 26.145 0 0 1-9 3.5 40.148 40.148 0 0 1-8.5 6.5l-1-2a172.46 172.46 0 0 0-8.5 9c-1.783-.848-2.283-2.181-1.5-4 3.973-.142 6.14-2.142 6.5-6 2.818.005 3.985-1.328 3.5-4-1.393 2.625-2.559 2.625-3.5 0v-1a30.786 30.786 0 0 0 3-4.5 68.3 68.3 0 0 1 18-9c1.141-.741 1.141-1.575 0-2.5a4.457 4.457 0 0 1 2-1.5l-4-1c5.449-.896 10.782-.563 16 1a3.647 3.647 0 0 0-1 1.5 9.258 9.258 0 0 1 2 2.5c-1.934 2.502-2.934 5.336-3 8.5z"/><path style="opacity:1" fill="#da99e0" d="M192.5 176.5a507.055 507.055 0 0 1 45-1c-.333 1-1 1.667-2 2a462.903 462.903 0 0 0-43-1z"/><path style="opacity:1" fill="#d8affc" d="M345.5 176.5c2.657-.338 4.99.329 7 2 .683-.363 1.35-.696 2-1 .958 1.802 1.625 3.802 2 6a35.72 35.72 0 0 0-8-6c-1.788.783-2.788 2.116-3 4a54.912 54.912 0 0 0-7 7c-.262-1.478.071-2.811 1-4a21.415 21.415 0 0 1 5-6c.838-.342 1.172-1.008 1-2z"/><path style="opacity:1" fill="#e8b8e3" d="M191.5 176.5h1c14.51-.329 28.843.004 43 1l-16 21-3 2-1-6c2.138-.203 3.805-1.203 5-3a3.647 3.647 0 0 1 1.5 1c-.408-4.758 1.759-7.091 6.5-7 .326-2.161 1.326-3.994 3-5.5-8.832.243-17.332.41-25.5.5a26.653 26.653 0 0 1-5.5-3c-2.402 1.549-5.068 2.216-8 2a57.829 57.829 0 0 0-2.5 8c-.671.752-1.504 1.086-2.5 1a126.602 126.602 0 0 0 4-12z"/><path style="opacity:1" fill="#eabcda" d="M216.5 200.5v1c-1.624.14-2.79-.527-3.5-2-4.177 2.25-5.844 5.583-5 10-.535-1.771-1.369-2.104-2.5-1a9.108 9.108 0 0 1 1 5 16.635 16.635 0 0 1-5 6 89.247 89.247 0 0 1-4-2c-4.056 2.859-6.056 6.859-6 12a20.225 20.225 0 0 1-4.5-3c-1.659 1.454-1.326 2.787 1 4 .896 3.292-.271 5.625-3.5 7-1.545.952-3.212 1.285-5 1a9.108 9.108 0 0 0 1 5c-1.684.65-3.017 1.65-4 3-.543-.06-.876-.393-1-1 2.991-3.508 2.658-6.508-1-9a76.092 76.092 0 0 0-2.5 12 33.689 33.689 0 0 1-3.5-9 43.836 43.836 0 0 0-2-1v-2c2.337-2.007 3.671-4.673 4-8h3c-.232-3.957.601-7.624 2.5-11 .71-1.473 1.876-2.14 3.5-2v-8l2-8 2-2c2.8-2.186 4.134-5.186 4-9 .996.086 1.829-.248 2.5-1a57.829 57.829 0 0 1 2.5-8c2.932.216 5.598-.451 8-2a26.653 26.653 0 0 0 5.5 3c8.168-.09 16.668-.257 25.5-.5-1.674 1.506-2.674 3.339-3 5.5-4.741-.091-6.908 2.242-6.5 7a3.647 3.647 0 0 0-1.5-1c-1.195 1.797-2.862 2.797-5 3l1 6z"/><path style="opacity:1" fill="#dbbcef" d="M344.5 178.5a21.415 21.415 0 0 0-5 6c-.929 1.189-1.262 2.522-1 4a5.727 5.727 0 0 0-1 3c1.937 3.606 4.603 6.606 8 9-3.376.358-6.042 1.858-8 4.5 2.309.756 4.309.256 6-1.5a25.866 25.866 0 0 0 5 3 11.38 11.38 0 0 1-2.5 2 49.226 49.226 0 0 0 0 14 26.585 26.585 0 0 1 3.5 2c-2.527 1.877-4.194 4.377-5 7.5.139 1.301.805 2.134 2 2.5.419 2.825-.581 4.991-3 6.5-1.244.456-2.077-.044-2.5-1.5-1.688.825-1.855 1.825-.5 3-2.256.921-3.256 2.588-3 5-4.129 6.073-2.462 9.573 5 10.5 1.537 1.11 2.203 2.61 2 4.5a51.569 51.569 0 0 0-7-1c-.214 1.644.12 3.144 1 4.5a43.385 43.385 0 0 0 8 2 32.065 32.065 0 0 1-4 2.5 7.293 7.293 0 0 0 3 2c1.571-1.915 3.571-2.915 6-3a1212.4 1212.4 0 0 1-1 68c3.095.126 4.928 1.793 5.5 5 1.726 1.076 3.559 1.243 5.5.5-.354-1.626-.354-3.459 0-5.5a17.65 17.65 0 0 0 6 .5c-2.456-2.159-1.79-2.992 2-2.5v-3a20.69 20.69 0 0 0 5-1c-14.985 17.653-32.651 31.986-53 43-4.454-.883-7.954.45-10.5 4a100.262 100.262 0 0 1-5.5-2 3.647 3.647 0 0 1 1-1.5 34.041 34.041 0 0 0 7.5-1.5c.617-.949.451-1.782-.5-2.5a83.379 83.379 0 0 1-8-3 10.098 10.098 0 0 1 6-1.5 999.914 999.914 0 0 1-2-78h-4a32.462 32.462 0 0 0-.5-8c-.549 2.26-1.716 3.926-3.5 5 .734-1.208 1.067-2.541 1-4a5.727 5.727 0 0 1 1-3c1.29-.558 2.123-1.558 2.5-3l2-12c2.299-5.003 3.466-10.336 3.5-16v-2c1.058-1.1 1.892-2.434 2.5-4l6.5-28c1.785-.426 2.785-1.592 3-3.5.47-8.148 1.804-15.981 4-23.5a18.991 18.991 0 0 0 1.5 8c1.011-.837 2.178-1.17 3.5-1 .466-5.991.799-11.991 1-18h8v3h3z"/><path style="opacity:1" fill="#e3bce4" d="M262.5 182.5c2.442-.146 3.109.687 2 2.5.805 1.972 2.139 3.472 4 4.5a81.883 81.883 0 0 1 1 18h-4v16a8.43 8.43 0 0 0-4 .5l1 1c3.053.179 6.053.679 9 1.5a394.281 394.281 0 0 1-28 1.5 283.777 283.777 0 0 0 28 2.5v3a1535.84 1535.84 0 0 1-32 1.5l24 1c-10.175.17-20.175.67-30 1.5h-14v-4c.333-1 1-1.667 2-2 1.32-1.442 2.986-2.108 5-2a19.22 19.22 0 0 1 1-6l2-3 18-21c3.839-2.494 6.506-5.828 8-10 0-.667.333-1 1-1 2.439-1.527 4.439-3.527 6-6z"/><path style="opacity:1" fill="#f04f41" d="M126.5 169.5c.6 1.4 1.6 2.4 3 3v1c.829 4.654 1.663 9.32 2.5 14 .383.556.883.889 1.5 1-.235.597-.735.93-1.5 1a274.262 274.262 0 0 1-4-4 86.014 86.014 0 0 0-3.5 12l-5 4c-.557-1.832-1.557-3.165-3-4l-4-6-2-8c3.103 1.873 5.103 4.539 6 8 1.788-.285 3.455.048 5 1-1.617 2.132-2.117 4.465-1.5 7l4.5-6.5c-2.094-1.255-3.094-3.088-3-5.5-.003-3.894 1.164-4.56 3.5-2a15.256 15.256 0 0 1 1.5-4.5c-1.078-.674-1.745-1.674-2-3 1.395-2.679 2.061-5.512 2-8.5z"/><path style="opacity:1" fill="#f5b6d6" d="M91.5 178.5h4c-.478 2.778.522 4.778 3 6 1.571-1.915 3.571-2.915 6-3 .219 1.175-.114 2.175-1 3-3.355.942-3.688 2.275-1 4 .304.65.637 1.317 1 2-3.232 4.081-6.899 7.915-11 11.5-3.602.429-6.268 2.263-8 5.5-1.189.929-2.522 1.262-4 1a451.638 451.638 0 0 0 19.5-17c.667-1 .667-2 0-3-3.419-2.912-6.252-6.246-8.5-10z"/><path style="opacity:1" fill="#7d39d3" d="M312.5 171.5a227.716 227.716 0 0 1-2.5 21c-.902 1.931-2.069 3.597-3.5 5l4-22 2-4z"/><path style="opacity:1" fill="#793cd3" d="M345.5 181.5c-1.235 3.458-3.235 6.458-6 9 1.357 1.686 2.69 3.352 4 5a17.902 17.902 0 0 1-6-4 5.727 5.727 0 0 1 1-3 54.912 54.912 0 0 1 7-7z"/><path style="opacity:1" fill="#d6b0fd" d="M360.5 186.5c1.67.251 3.17.918 4.5 2l1-1c.307 3.376 2.14 4.71 5.5 4a19.49 19.49 0 0 0 3 7 120.776 120.776 0 0 1-14-12z"/><path style="opacity:1" fill="#ddb1f9" d="m310.5 175.5-4 22c-.934 1.068-1.268 2.401-1 4a322.06 322.06 0 0 0-7 24c.672-8.487 2.506-16.82 5.5-25 .728-2.73.562-5.397-.5-8 .825-.886 1.825-1.219 3-1 .13-5.856 1.464-11.19 4-16z"/><path style="opacity:1" fill="#b02ba9" d="M191.5 155.5h1c-2.678 7.351-5.345 14.684-8 22-.205 2.729.628 5.062 2.5 7 .914-3.05 2.414-5.717 4.5-8a126.602 126.602 0 0 1-4 12c-1.704 2.756-3.037 5.756-4 9l-2 2a75.077 75.077 0 0 1-4.5 3c-.743 1.941-.576 3.774.5 5.5-.753 1.487-1.586 1.654-2.5.5a361.002 361.002 0 0 1-9.5 24l-1-3a103.658 103.658 0 0 1 3-11c.827-7.716 3.327-14.716 7.5-21a91.274 91.274 0 0 1 2.5-10v-2c1.385-1.074 2.551-2.407 3.5-4l10.5-26z"/><path style="opacity:1" fill="#8c4fd6" d="M324.5 191.5a140.381 140.381 0 0 1-4 16c.133-5.869 1.467-11.203 4-16z"/><path style="opacity:1" fill="#d7367b" d="M181.5 175.5a27.563 27.563 0 0 1-3.5 6 8.43 8.43 0 0 0-.5 4c-.996-.086-1.829.248-2.5 1a276.456 276.456 0 0 1-11 19 37.138 37.138 0 0 1-7.5 9l-15 30a13.116 13.116 0 0 1 1-7 449.766 449.766 0 0 1 12.5-25c3.397-2.058 5.063-5.058 5-9 3.688-2.717 5.688-6.384 6-11a64.116 64.116 0 0 1 9-10l1-7c1.626-.354 3.459-.354 5.5 0z"/><path style="opacity:1" fill="#d6adf3" d="M255.5 189.5c-1.494 4.172-4.161 7.506-8 10a57.731 57.731 0 0 1 8-10z"/><path style="opacity:1" fill="#eea8e2" d="M187.5 188.5c.134 3.814-1.2 6.814-4 9 .963-3.244 2.296-6.244 4-9z"/><path style="opacity:1" fill="#7d43ce" d="M343.5 195.5c2.589.919 4.589 2.586 6 5-2.589-.919-4.589-2.586-6-5z"/><path style="opacity:1" fill="#742ee8" d="M356.5 183.5c1.295.988 2.628 1.988 4 3a120.776 120.776 0 0 0 14 12c.936 1.474 2.27 2.474 4 3a45.26 45.26 0 0 0 10 8c3.3 3.327 6.633 6.66 10 10-4.687 4.355-9.354 8.688-14 13-2.947 1.281-5.281 3.281-7 6-1.562.233-2.895.9-4 2-1.889.88-3.889.88-6 0v4h-4v5h-1a8.43 8.43 0 0 0-4 .5c1.206 1.018.873 1.518-1 1.5-2.315-.299-2.315-1.132 0-2.5-1.211-1.578-2.545-1.745-4-.5a46.745 46.745 0 0 0-1.5 8 172.15 172.15 0 0 0-6.5-13l4.5-3c3.19 1.57 6.024 3.57 8.5 6 1.333-1 1.333-2 0-3a23.87 23.87 0 0 0-6-5c4.005-1.668 6.339-4.668 7-9a140.22 140.22 0 0 1 10.5-9c.585-1.498.085-2.498-1.5-3l-1-2a71.238 71.238 0 0 1-12-12.5 33.052 33.052 0 0 1-6-2.5c-1.411-2.414-3.411-4.081-6-5-1.31-1.648-2.643-3.314-4-5 2.765-2.542 4.765-5.542 6-9 .212-1.884 1.212-3.217 3-4a35.72 35.72 0 0 1 8 6z"/><path style="opacity:1" fill="#963da5" d="M73.5 191.5c-2.463 3.8-5.796 6.467-10 8a57.727 57.727 0 0 1 10-8z"/><path style="opacity:1" fill="#6c3dcb" d="M259.5 177.5c-.576 3.348-1.576 6.015-3 8a18.453 18.453 0 0 0-6 .5l1 1c-3.031 5.524-6.698 10.691-11 15.5a24.218 24.218 0 0 1-5.5-1 85.058 85.058 0 0 0-13 12c-1.418-1.863-3.251-2.363-5.5-1.5-3.256 1.459-5.923 3.626-8 6.5-.952-1.545-1.285-3.212-1-5 5.199-4.079 9.199-9.079 12-15l16-21c1-.333 1.667-1 2-2 .941 2.625 2.107 2.625 3.5 0 .485 2.672-.682 4.005-3.5 4-.36 3.858-2.527 5.858-6.5 6-.783 1.819-.283 3.152 1.5 4a172.46 172.46 0 0 1 8.5-9l1 2a40.148 40.148 0 0 0 8.5-6.5 26.145 26.145 0 0 0 9-3.5 43.43 43.43 0 0 0 0 5z"/><path style="opacity:1" fill="#7749b6" d="M219.5 198.5c-2.801 5.921-6.801 10.921-12 15 2.976-3.982 5.976-7.982 9-12v-1l3-2z"/><path style="opacity:1" fill="#ec4656" d="m129.5 173.5 6 12a43.521 43.521 0 0 1 3 10v4c.09 2.196.423 4.363 1 6.5a220.568 220.568 0 0 0-6.5 12.5c-.498 2.027-.331 4.027.5 6-.368 1.41-1.201 2.41-2.5 3-.492-1.049-.326-2.049.5-3a55.78 55.78 0 0 1-4-1 59.89 59.89 0 0 1-4-8c1.322-.17 2.489.163 3.5 1 1.618-4.03 3.118-8.03 4.5-12 3.416.634 5.416-.7 6-4a152.436 152.436 0 0 0-3.5-13c-.399.228-.565.562-.5 1-.617-.111-1.117-.444-1.5-1-.837-4.68-1.671-9.346-2.5-14z"/><path style="opacity:1" fill="#e4b8e7" d="M216.5 201.5a4464.252 4464.252 0 0 0-9 12h-1a9.108 9.108 0 0 0-1-5c1.131-1.104 1.965-.771 2.5 1-.844-4.417.823-7.75 5-10 .71 1.473 1.876 2.14 3.5 2z"/><path style="opacity:1" fill="#f3bccb" d="M102.5 188.5c2.082.124 3.582 1.124 4.5 3 1.71-2.397 3.544-2.397 5.5 0l4 6a147.223 147.223 0 0 0 7 18 59.89 59.89 0 0 0 4 8c.104 2.203.77 4.203 2 6a129.798 129.798 0 0 1 8 20c-3.504-4.047-6.17-8.714-8-14l-1 .5 2 4c-.949.617-1.782.451-2.5-.5l-1-9c-1.388 1.054-2.888 1.22-4.5.5a34.207 34.207 0 0 0 1.5-11.5 4.457 4.457 0 0 1-1.5 2c-.73-1.434-1.73-2.6-3-3.5 1.507-.837 2.007-2.004 1.5-3.5-.667-1.333-1.333-1.333-2 0a22.981 22.981 0 0 0-2 5l-3-2a3013.843 3013.843 0 0 1 1.5 130h-20v-28h6c.333-21.344 0-42.677-1-64a44.147 44.147 0 0 0-2-1 10.51 10.51 0 0 1 2.5-3c.253-2.7.253-5.367 0-8 2.481.522 4.814.522 7 0 1.269-1.405 1.769-3.071 1.5-5h-4v3c-4.075 1.201-8.075.701-12-1.5a35.244 35.244 0 0 1-1-4.5c-1.268.928-2.601 1.095-4 .5a33.7 33.7 0 0 1-5-6.5 10.256 10.256 0 0 0-4-1.5c-3.266-2.409-6.266-5.243-9-8.5a7.248 7.248 0 0 1 2-2.5c1.813.046 3.48-.12 5-.5l-1-2c1.778-1.764 3.11-3.764 4-6 1.478.262 2.811-.071 4-1 1.732-3.237 4.398-5.071 8-5.5 4.101-3.585 7.768-7.419 11-11.5a43.836 43.836 0 0 1-1-2z"/><path style="opacity:1" fill="#9430ba" d="M91.5 178.5c2.248 3.754 5.081 7.088 8.5 10 .667 1 .667 2 0 3a451.638 451.638 0 0 1-19.5 17h-5c.219 1.175-.114 2.175-1 3-1.698-1.181-3.365-1.181-5 0a6.846 6.846 0 0 1 1 4 12.93 12.93 0 0 0-5 .5 20.438 20.438 0 0 1 1.5 5.5 19.597 19.597 0 0 0 7.5 5 745.47 745.47 0 0 1 25.5 21c.667 1 .667 2 0 3-2.454 1.941-4.287 4.275-5.5 7-1.648 1.31-3.314 2.643-5 4a161.732 161.732 0 0 1-16-14 38.44 38.44 0 0 0-5-5.5c1.525-1.009 3.192-1.509 5-1.5v-3a24.075 24.075 0 0 1-9 1.5c-.88-1.356-1.214-2.856-1-4.5a21.434 21.434 0 0 1-7-1c-1-.333-1.667-1-2-2 0-4-2-6-6-6v-3a19.222 19.222 0 0 1-6-1 4.932 4.932 0 0 1 .5-3 46.117 46.117 0 0 0 5.5-6c5.962-3.301 10.962-7.634 15-13 4.204-1.533 7.537-4.2 10-8a34.825 34.825 0 0 1 7-7 78.953 78.953 0 0 1 8-6.5c1.077-.47 2.077-.303 3 .5z"/><path style="opacity:1" fill="#d9bcf4" d="M337.5 191.5a17.902 17.902 0 0 0 6 4c1.411 2.414 3.411 4.081 6 5a96.513 96.513 0 0 0 18 15l1 2v3c-4.392-.04-7.892 1.627-10.5 5-1.613-1.122-2.78-.622-3.5 1.5a4.934 4.934 0 0 1-3 .5v7h-5c-1.195-.366-1.861-1.199-2-2.5.806-3.123 2.473-5.623 5-7.5a26.585 26.585 0 0 0-3.5-2 49.226 49.226 0 0 1 0-14 11.38 11.38 0 0 0 2.5-2 25.866 25.866 0 0 1-5-3c-1.691 1.756-3.691 2.256-6 1.5 1.958-2.642 4.624-4.142 8-4.5-3.397-2.394-6.063-5.394-8-9z"/><path style="opacity:1" fill="#ee484b" d="M133.5 188.5c-.065-.438.101-.772.5-1a152.436 152.436 0 0 1 3.5 13c-.584 3.3-2.584 4.634-6 4a273.898 273.898 0 0 1-4.5 12c-1.011-.837-2.178-1.17-3.5-1a147.223 147.223 0 0 1-7-18c1.443.835 2.443 2.168 3 4l5-4a86.014 86.014 0 0 1 3.5-12 274.262 274.262 0 0 0 4 4c.765-.07 1.265-.403 1.5-1z"/><path style="opacity:1" fill="#e93f5c" d="M138.5 199.5c6.765 8.885 6.265 17.218-1.5 25a26.67 26.67 0 0 1-1.5 6.5l1 1a8.43 8.43 0 0 1-4 .5c0-2-1-3-3-3-1.23-1.797-1.896-3.797-2-6a55.78 55.78 0 0 0 4 1c-.826.951-.992 1.951-.5 3 1.299-.59 2.132-1.59 2.5-3-.831-1.973-.998-3.973-.5-6a220.568 220.568 0 0 1 6.5-12.5 29.495 29.495 0 0 1-1-6.5z"/><path style="opacity:1" fill="#6342ca" d="m270.5 169.5-14 19c-.667 0-1 .333-1 1a57.731 57.731 0 0 0-8 10l-18 21a116.408 116.408 0 0 1-4.5-3c-.05 2.018-.883 4.018-2.5 6-.86-2.431-2.527-3.764-5-4-.172 1.992.495 3.658 2 5-2.345 1.292-4.678 1.292-7 0 2.256.921 3.256 2.588 3 5h-3v-3h-3c-3.014 10.064-6.014 9.731-9-1a343.58 343.58 0 0 0 1-4v-2a16.635 16.635 0 0 0 5-6h1c-.285 1.788.048 3.455 1 5 2.077-2.874 4.744-5.041 8-6.5 2.249-.863 4.082-.363 5.5 1.5a85.058 85.058 0 0 1 13-12c1.744.536 3.577.87 5.5 1 4.302-4.809 7.969-9.976 11-15.5l-1-1a18.453 18.453 0 0 1 6-.5c1.424-1.985 2.424-4.652 3-8h3c1-4.333 3.667-7 8-8z"/><path style="opacity:1" fill="#963ea3" d="M63.5 199.5c-4.038 5.366-9.038 9.699-15 13 4.68-4.678 9.68-9.011 15-13z"/><path style="opacity:1" fill="#ddb6f7" d="M327.5 186.5c-2.196 7.519-3.53 15.352-4 23.5-.215 1.908-1.215 3.074-3 3.5v-6a140.381 140.381 0 0 0 4-16 382.753 382.753 0 0 0 5-22c.934-1.068 1.268-2.401 1-4h-17c.17-1.322-.163-2.489-1-3.5a12.93 12.93 0 0 1 5-.5c2.744.252 5.244-.415 7.5-2 1.713.637 1.879 1.637.5 3a16.873 16.873 0 0 0 8 1 340.414 340.414 0 0 1-6 23z"/><path style="opacity:1" fill="#7840d4" d="M349.5 200.5a33.052 33.052 0 0 0 6 2.5 71.238 71.238 0 0 0 12 12.5 96.513 96.513 0 0 1-18-15z"/><path style="opacity:1" fill="#fab6cf" d="M75.5 184.5h5a34.825 34.825 0 0 0-7 7 57.727 57.727 0 0 0-10 8 139.782 139.782 0 0 0-15 13 69.687 69.687 0 0 0-8.5 6c-.52 1.989.314 2.989 2.5 3a34.825 34.825 0 0 0 7 7h-2a6.845 6.845 0 0 1-4-1c-.953-2.93-2.62-5.263-5-7v-4h3c.914-4.539 3.248-8.206 7-11 1.391 1.145 2.724 1.145 4 0a3.646 3.646 0 0 0-1-1.5c3.409-1.241 6.076-3.408 8-6.5.813-1.153 1.813-1.153 3 0a26.107 26.107 0 0 1 5-3.5c.837-1.011 1.17-2.178 1-3.5 2.442.146 3.11-.687 2-2.5a12.93 12.93 0 0 1 5-.5v-3z"/><path style="opacity:1" fill="#9438ab" d="M79.5 208.5c-3.98 3.645-7.98 7.311-12 11a34.82 34.82 0 0 1 7 7 19.597 19.597 0 0 1-7.5-5 20.438 20.438 0 0 0-1.5-5.5 12.93 12.93 0 0 1 5-.5 6.846 6.846 0 0 0-1-4c1.635-1.181 3.302-1.181 5 0 .886-.825 1.219-1.825 1-3h4z"/><path style="opacity:1" fill="#e43f67" d="M138.5 195.5c3.122 5.256 5.455 10.923 7 17 .883 2.884.883 5.717 0 8.5-2.007 2.036-3.173 4.536-3.5 7.5a4.457 4.457 0 0 0-1.5-2 66.686 66.686 0 0 1-5 12 239.564 239.564 0 0 1-3-6 8.43 8.43 0 0 0 4-.5l-1-1a26.67 26.67 0 0 0 1.5-6.5c7.765-7.782 8.265-16.115 1.5-25v-4z"/><path style="opacity:1" fill="#8240d0" d="M305.5 201.5a783.45 783.45 0 0 0-1.5 13c-1.325 6.389-3.492 12.389-6.5 18a51.569 51.569 0 0 1 1-7 322.06 322.06 0 0 1 7-24z"/><path style="opacity:1" fill="#f1bdd1" d="M137.5 249.5a50.879 50.879 0 0 0 4 12.5c4.029.303 8.029.803 12 1.5a31.435 31.435 0 0 0 6.5-2 8.43 8.43 0 0 1 .5 4c-5.673 1.252-11.34 1.252-17 0a4.934 4.934 0 0 0 .5 3 13.24 13.24 0 0 1 5 3c2.555-2.15 5.388-2.483 8.5-1a4.457 4.457 0 0 1-1.5 2 112.97 112.97 0 0 0-.5 15h-4v16h4v80a72.367 72.367 0 0 0-12 .5c-.556.383-.889.883-1 1.5-5.25-.148-10.25-1.148-15-3-8.647-3.32-16.647-7.654-24-13 2.047.011 4.047.344 6 1a226.877 226.877 0 0 1 10-3v-16h-4v-4c.434-43.409-.066-86.742-1.5-130l3 2a22.981 22.981 0 0 1 2-5c.667-1.333 1.333-1.333 2 0 .507 1.496.007 2.663-1.5 3.5 1.27.9 2.27 2.066 3 3.5a4.457 4.457 0 0 0 1.5-2 34.207 34.207 0 0 1-1.5 11.5c1.612.72 3.112.554 4.5-.5l1 9c.718.951 1.551 1.117 2.5.5l-2-4 1-.5c1.83 5.286 4.496 9.953 8 14z"/><path style="opacity:1" fill="#9941a0" d="M48.5 212.5a46.117 46.117 0 0 1-5.5 6 4.932 4.932 0 0 0-.5 3c-2.186-.011-3.02-1.011-2.5-3a69.687 69.687 0 0 1 8.5-6z"/><path style="opacity:1" fill="#f5b3d5" d="M79.5 208.5h1c-.89 2.236-2.222 4.236-4 6l1 2c-1.52.38-3.187.546-5 .5a7.248 7.248 0 0 0-2 2.5c2.734 3.257 5.734 6.091 9 8.5 1.438.219 2.771.719 4 1.5a33.7 33.7 0 0 0 5 6.5c1.399.595 2.732.428 4-.5a35.244 35.244 0 0 0 1 4.5c3.925 2.201 7.925 2.701 12 1.5v-3h4c.269 1.929-.231 3.595-1.5 5-2.186.522-4.519.522-7 0 .253 2.633.253 5.3 0 8a10.51 10.51 0 0 0-2.5 3l-4 3c1.213-2.725 3.046-5.059 5.5-7 .667-1 .667-2 0-3a745.47 745.47 0 0 0-25.5-21 34.82 34.82 0 0 0-7-7c4.02-3.689 8.02-7.355 12-11z"/><path style="opacity:1" fill="#bf3098" d="M177.5 187.5a91.274 91.274 0 0 0-2.5 10c-4.173 6.284-6.673 13.284-7.5 21-2.11.953-3.277 2.619-3.5 5l-1 9c-1.011-.837-2.178-1.17-3.5-1 .513-7.38 3.013-14.047 7.5-20a33.546 33.546 0 0 0 2.5-10c2.684-4.707 5.351-9.373 8-14z"/><path style="opacity:1" fill="#7d38d5" d="M319.5 210.5a569.682 569.682 0 0 1-7 29 67.767 67.767 0 0 1 2-13.5 228.963 228.963 0 0 1-3-5.5c1.004-3.853 1.838-3.853 2.5 0a161.095 161.095 0 0 1 5.5-10z"/><path style="opacity:1" fill="#d13683" d="M177.5 185.5v2a9316.237 9316.237 0 0 0-8 14 2811.446 2811.446 0 0 1-6 13l-3 3c-3.384 4.89-6.217 10.224-8.5 16-2.727 8.737-5.893 17.071-9.5 25-2.092-2.588-3.425-5.588-4-9a18.924 18.924 0 0 0 3-5l15-30a37.138 37.138 0 0 0 7.5-9 276.456 276.456 0 0 0 11-19c.671-.752 1.504-1.086 2.5-1z"/><path style="opacity:1" fill="#f1aede" d="M179.5 207.5v8c-1.624-.14-2.79.527-3.5 2-1.899 3.376-2.732 7.043-2.5 11h-3c-.329 3.327-1.663 5.993-4 8a259.42 259.42 0 0 1 13-29z"/><path style="opacity:1" fill="#dc3b72" d="M187.5 159.5a42.494 42.494 0 0 1-5.5 11 12.93 12.93 0 0 0-.5 5c-2.041-.354-3.874-.354-5.5 0l-1 7a64.116 64.116 0 0 0-9 10c-.312 4.616-2.312 8.283-6 11 .063 3.942-1.603 6.942-5 9a449.766 449.766 0 0 0-12.5 25 13.116 13.116 0 0 0-1 7 18.924 18.924 0 0 1-3 5h-1a129.798 129.798 0 0 0-8-20c2 0 3 1 3 3a239.564 239.564 0 0 0 3 6 66.686 66.686 0 0 0 5-12 4.457 4.457 0 0 1 1.5 2c.327-2.964 1.493-5.464 3.5-7.5.883-2.783.883-5.616 0-8.5 1.058 1.1 1.892 2.434 2.5 4a164.416 164.416 0 0 0 10.5-25l9-20a82.949 82.949 0 0 1-2 11.5c.13 1.059.63 1.892 1.5 2.5 2.114-5.381 4.78-10.381 8-15 2.09-1.291 3.424-.624 4 2l1-7c1.008-.482 2.175-.648 3.5-.5.532-2.463 1.866-4.297 4-5.5z"/><path style="opacity:1" fill="#d8b4fe" d="M388.5 209.5c1.808-.009 3.475.491 5 1.5a71.452 71.452 0 0 1 6 8.5 17.774 17.774 0 0 1-4 6 300.549 300.549 0 0 1-8 5c-.17 1.322.163 2.489 1 3.5-1.693.484-3.027-.016-4-1.5 4.646-4.312 9.313-8.645 14-13-3.367-3.34-6.7-6.673-10-10z"/><path style="opacity:1" fill="#9839ac" d="M42.5 221.5c1.935.65 3.935.983 6 1v3c4 0 6 2 6 6a11.741 11.741 0 0 1-5-3 34.825 34.825 0 0 1-7-7z"/><path style="opacity:1" fill="#dab8f9" d="M368.5 217.5c1.585.502 2.085 1.502 1.5 3a140.22 140.22 0 0 0-10.5 9 6279.642 6279.642 0 0 0-20 17l-2 1c-.256-2.412.744-4.079 3-5-1.355-1.175-1.188-2.175.5-3 .423 1.456 1.256 1.956 2.5 1.5 2.419-1.509 3.419-3.675 3-6.5h5v-7a4.934 4.934 0 0 0 3-.5c.72-2.122 1.887-2.622 3.5-1.5 2.608-3.373 6.108-5.04 10.5-5v-3z"/><path style="opacity:1" fill="#d7aff0" d="M227.5 223.5a19.22 19.22 0 0 0-1 6c-2.014-.108-3.68.558-5 2a35.23 35.23 0 0 1 6-8z"/><path style="opacity:1" fill="#fabdc4" d="M47.5 231.5c1.725.343 2.225 1.343 1.5 3a66.705 66.705 0 0 0-5.5-2c-1.239 1.507-.905 2.674 1 3.5 1.601.273 3.101.773 4.5 1.5.317-1.801.984-2.134 2-1l1.5-1.5c-1.211-.893-1.211-1.726 0-2.5 1 .333 1.667 1 2 2-.776 1.856-2.11 3.189-4 4 .333 1 1 1.667 2 2a1288.929 1288.929 0 0 0 3 71.5c-2.528 1.017-2.528 2.184 0 3.5l-2 2c.826.951.992 1.951.5 3-1-1.333-2-1.333-3 0-1.426-2.266-3.26-3.932-5.5-5-12.453-17.244-21.453-36.244-27-57 2.564 4.167 4.398 8.833 5.5 14 2.736 4.279 4.736 8.945 6 14 .324 2.069 1.157 2.402 2.5 1 .723-17.014 1.39-34.014 2-51a4.934 4.934 0 0 1-3-.5c-1.85-3.466-.85-5.299 3-5.5-.24 1.967.094 3.801 1 5.5 2.14.884 3.807.384 5-1.5-1.088-2.465-2.922-4.131-5.5-5a20.093 20.093 0 0 1-1.5-6 8.43 8.43 0 0 1 4 .5c2.035 3.368 4.701 6.035 8 8 .937.692 1.603.525 2-.5z"/><path style="opacity:1" fill="#c53393" d="M169.5 201.5a33.546 33.546 0 0 1-2.5 10c-4.487 5.953-6.987 12.62-7.5 20v1c-2.067 5.463-4.733 10.796-8 16a53.477 53.477 0 0 0-2 10c-1.826-1.955-2.326-4.288-1.5-7a97.44 97.44 0 0 0 8-21 14.587 14.587 0 0 1 4-6c.497-2.31.663-4.643.5-7l3-3c2.018-4.343 4.018-8.677 6-13z"/><path style="opacity:1" fill="#5e46c7" d="m229.5 220.5-2 3a35.23 35.23 0 0 0-6 8c-1 .333-1.667 1-2 2a6.547 6.547 0 0 0-3 3c-.992-.172-1.658.162-2 1-3.533-1.296-4.533-.129-3 3.5a95.523 95.523 0 0 1-7.5 5.5 76.537 76.537 0 0 0-4 9l-1-1a19.177 19.177 0 0 0-2.5 5c-5.852.449-11.519-.051-17-1.5l2-1c-1.957-2.121-2.457-4.621-1.5-7.5a30.137 30.137 0 0 0 3.5-6 111.825 111.825 0 0 1 18-22 343.58 343.58 0 0 1-1 4c2.986 10.731 5.986 11.064 9 1h3v3h3c.256-2.412-.744-4.079-3-5 2.322 1.292 4.655 1.292 7 0-1.505-1.342-2.172-3.008-2-5 2.473.236 4.14 1.569 5 4 1.617-1.982 2.45-3.982 2.5-6a116.408 116.408 0 0 0 4.5 3z"/><path style="opacity:1" fill="#7b2ddf" d="M329.5 169.5a382.753 382.753 0 0 1-5 22c-2.533 4.797-3.867 10.131-4 16-.904.709-1.237 1.709-1 3a161.095 161.095 0 0 0-5.5 10c-.662-3.853-1.496-3.853-2.5 0a228.963 228.963 0 0 0 3 5.5 67.767 67.767 0 0 0-2 13.5c-1.225.652-1.892 1.819-2 3.5a70.73 70.73 0 0 0-2 11.5l-5 24a5.727 5.727 0 0 0-1 3c-4.804 2.743-10.137 3.743-16 3 .116-3.36.449-6.693 1-10v-1c1.424-2.015 2.09-4.348 2-7v-1c1.81-2.645 2.81-5.645 3-9 2.135.353 3.468-.48 4-2.5a13.487 13.487 0 0 1-2-4c1.687-5.302 2.687-10.802 3-16.5v-1c3.008-5.611 5.175-11.611 6.5-18a783.45 783.45 0 0 1 1.5-13c-.268-1.599.066-2.932 1-4 1.431-1.403 2.598-3.069 3.5-5a227.716 227.716 0 0 0 2.5-21c1.431-1.28 2.098-2.947 2-5h15v3z"/><path style="opacity:1" fill="#d9abfa" d="M320.5 207.5v6l-6.5 28c-.608 1.566-1.442 2.9-2.5 4a19.22 19.22 0 0 1 1-6 569.682 569.682 0 0 0 7-29c-.237-1.291.096-2.291 1-3z"/><path style="opacity:1" fill="#bc349a" d="M159.5 232.5c1.213 3.301 1.213 6.634 0 10 .14 1.53.807 2.53 2 3l-2 7a36.693 36.693 0 0 1-4 7c-2.235.295-4.235-.039-6-1a53.477 53.477 0 0 1 2-10c3.267-5.204 5.933-10.537 8-16z"/><path style="opacity:1" fill="#554ecb" d="M214.5 237.5v3h11c-.256 2.276-1.59 3.443-4 3.5l1 1c-4.952 2.451-8.286 6.284-10 11.5-3.955.491-7.621 1.491-11 3h-5a19.177 19.177 0 0 1 2.5-5l1 1a76.537 76.537 0 0 1 4-9 95.523 95.523 0 0 0 7.5-5.5c-1.533-3.629-.533-4.796 3-3.5z"/><path style="opacity:1" fill="#f8bdc5" d="M47.5 228.5h2a11.741 11.741 0 0 0 5 3c.333 1 1 1.667 2 2l1 2a20.676 20.676 0 0 1 1 5h4v3a22.381 22.381 0 0 1 6.5 3c.688.832.521 1.498-.5 2-3.496-.978-3.83-.144-1 2.5 1.98 1.825 4.313 2.659 7 2.5a516.872 516.872 0 0 1-3 26l2 16-2 16 3 24a38.54 38.54 0 0 0 6 6.5 26.596 26.596 0 0 1-2 3.5 65.056 65.056 0 0 1-6.5-7l-1 2c-.741-1.141-1.575-1.141-2.5 0-1.122-1.544-.789-2.877 1-4-2.51-.158-4.843-.158-7 0a255.201 255.201 0 0 1-17-21c2.24 1.068 4.074 2.734 5.5 5 1-1.333 2-1.333 3 0 .492-1.049.326-2.049-.5-3l2-2c-2.528-1.316-2.528-2.483 0-3.5a1288.929 1288.929 0 0 1-3-71.5c-1-.333-1.667-1-2-2 1.89-.811 3.224-2.144 4-4-.333-1-1-1.667-2-2-1.211.774-1.211 1.607 0 2.5l-1.5 1.5c-1.016-1.134-1.683-.801-2 1a15.252 15.252 0 0 0-4.5-1.5c-1.905-.826-2.239-1.993-1-3.5a66.705 66.705 0 0 1 5.5 2c.725-1.657.225-2.657-1.5-3v-3z"/><path style="opacity:1" fill="#9535af" d="M56.5 233.5a21.434 21.434 0 0 0 7 1c-.214 1.644.12 3.144 1 4.5 3.07.078 6.07-.422 9-1.5v3c-1.808-.009-3.475.491-5 1.5a38.44 38.44 0 0 1 5 5.5 6259.755 6259.755 0 0 0-16-12l-1-2z"/><path style="opacity:1" fill="#d1b8f9" d="M219.5 233.5v4h53a226.49 226.49 0 0 0-3 24h-2l2-16a41.653 41.653 0 0 0 2-6 784.569 784.569 0 0 0-56-1l1-2a6.547 6.547 0 0 1 3-3z"/><path style="opacity:1" fill="#e5b8e3" d="M201.5 219.5v2a111.825 111.825 0 0 0-18 22c-2.004 1.173-3.504 2.84-4.5 5a81.712 81.712 0 0 0-3.5 12v1a67.898 67.898 0 0 1-2-7c1.092-.736 2.092-1.902 3-3.5.703-1.693.703-3.193 0-4.5.983-1.35 2.316-2.35 4-3a9.108 9.108 0 0 1-1-5c1.788.285 3.455-.048 5-1 3.229-1.375 4.396-3.708 3.5-7-2.326-1.213-2.659-2.546-1-4a20.225 20.225 0 0 0 4.5 3c-.056-5.141 1.944-9.141 6-12 1.367.725 2.7 1.392 4 2z"/><path style="opacity:1" fill="#7369c0" d="M215.5 238.5c18.679-.333 37.345 0 56 1a41.653 41.653 0 0 1-2 6v-6h-18c-12.178.328-24.178-.005-36-1z"/><path style="opacity:1" fill="#b434a1" d="m181.5 199.5-2 8a259.42 259.42 0 0 0-13 29 59.61 59.61 0 0 1-5 9c-1.193-.47-1.86-1.47-2-3 1.213-3.366 1.213-6.699 0-10v-1c1.322-.17 2.489.163 3.5 1l1-9c.223-2.381 1.39-4.047 3.5-5a103.658 103.658 0 0 0-3 11l1 3a361.002 361.002 0 0 0 9.5-24c.914 1.154 1.747.987 2.5-.5-1.076-1.726-1.243-3.559-.5-5.5a75.077 75.077 0 0 0 4.5-3z"/><path style="opacity:1" fill="#d7bcf6" d="M398.5 297.5c-6.063 12.725-14.063 24.059-24 34a20.69 20.69 0 0 1-5 1v3c-3.79-.492-4.456.341-2 2.5a17.65 17.65 0 0 1-6-.5c-.354 2.041-.354 3.874 0 5.5-1.941.743-3.774.576-5.5-.5-.572-3.207-2.405-4.874-5.5-5a1212.4 1212.4 0 0 0 1-68c-2.429.085-4.429 1.085-6 3a7.293 7.293 0 0 1-3-2 32.065 32.065 0 0 0 4-2.5 43.385 43.385 0 0 1-8-2c-.88-1.356-1.214-2.856-1-4.5 2.361.174 4.694.507 7 1 .203-1.89-.463-3.39-2-4.5-7.462-.927-9.129-4.427-5-10.5a35.23 35.23 0 0 0 6 8c1.669 2.009 3.336 4.009 5 6a89.452 89.452 0 0 0 14-12h1a6708.16 6708.16 0 0 1 10-9c1.105-1.1 2.438-1.767 4-2a5.576 5.576 0 0 0 3-1l2 4 2-2c2.171.227 4.338.56 6.5 1a353.238 353.238 0 0 1-.5 46c-1.667.333-2.667 1.333-3 3a17.774 17.774 0 0 0 4 6 55.026 55.026 0 0 1-3 8.5c1.063 1.188 2.397 1.688 4 1.5a31.871 31.871 0 0 1 3-7 5.576 5.576 0 0 1 3-1z"/><path style="opacity:1" fill="#4f54ce" d="M225.5 240.5c3.398-.32 6.732.013 10 1a12.795 12.795 0 0 0-3 6c-4.642 1.638-7.976 4.638-10 9a10.258 10.258 0 0 1-4 1.5 4.934 4.934 0 0 0 3 .5c-6.479.991-13.146 1.324-20 1 3.379-1.509 7.045-2.509 11-3 1.714-5.216 5.048-9.049 10-11.5l-1-1c2.41-.057 3.744-1.224 4-3.5z"/><path style="opacity:1" fill="#4c5ad0" d="m216.5 236.5-1 2c11.822.995 23.822 1.328 36 1v1a9.86 9.86 0 0 0-6 1c-.881 1.471-2.214 2.304-4 2.5l1 1a15.497 15.497 0 0 0-5.5 3.5 113.414 113.414 0 0 1-5.5 8.5c-3.354.455-6.687.955-10 1.5a4.934 4.934 0 0 1-3-.5 10.258 10.258 0 0 0 4-1.5c2.024-4.362 5.358-7.362 10-9a12.795 12.795 0 0 1 3-6 25.879 25.879 0 0 0-10-1h-11v-3c.342-.838 1.008-1.172 2-1z"/><path style="opacity:1" fill="#4961d4" d="M251.5 240.5h13a4.934 4.934 0 0 1-.5 3c-1.503-.335-2.836-.335-4 0-2.172 3.649-4.839 6.982-8 10-.617.949-.451 1.782.5 2.5-3.874 2.643-8.207 3.976-13 4-12.662.5-25.329.667-38 .5v-1c6.854.324 13.521-.009 20-1a358.463 358.463 0 0 1 10-1.5 113.414 113.414 0 0 0 5.5-8.5 15.497 15.497 0 0 1 5.5-3.5l-1-1c1.786-.196 3.119-1.029 4-2.5a9.86 9.86 0 0 1 6-1z"/><path style="opacity:1" fill="#f0abdb" d="M166.5 236.5v2a59.722 59.722 0 0 1-5 13c-.683.363-1.35.696-2 1l2-7a59.61 59.61 0 0 0 5-9z"/><path style="opacity:1" fill="#5a72da" d="M251.5 240.5v-1h18v6l-2 16h-92v-1h26c12.671.167 25.338 0 38-.5 4.793-.024 9.126-1.357 13-4-.951-.718-1.117-1.551-.5-2.5 3.161-3.018 5.828-6.351 8-10 1.164-.335 2.497-.335 4 0a4.934 4.934 0 0 0 .5-3h-13z"/><path style="opacity:1" fill="#8040ce" d="M312.5 239.5a19.22 19.22 0 0 0-1 6v2a60.379 60.379 0 0 1-3 7 70.73 70.73 0 0 1 2-11.5c.108-1.681.775-2.848 2-3.5z"/><path style="opacity:1" fill="#c6368b" d="M160.5 217.5a24.935 24.935 0 0 1-.5 7 14.587 14.587 0 0 0-4 6 97.44 97.44 0 0 1-8 21c-.826 2.712-.326 5.045 1.5 7 1.765.961 3.765 1.295 6 1-4.134.985-8.468 1.318-13 1v-2c3.607-7.929 6.773-16.263 9.5-25 2.283-5.776 5.116-11.11 8.5-16z"/><path style="opacity:1" fill="#763bdc" d="M373.5 240.5a6708.16 6708.16 0 0 0-10 9v-5h4v-4c2.111.88 4.111.88 6 0z"/><path style="opacity:1" fill="#f7b8d0" d="M57.5 235.5a6259.755 6259.755 0 0 1 16 12 161.732 161.732 0 0 0 16 14c1.686-1.357 3.352-2.69 5-4-.712 2.878-2.546 4.545-5.5 5a700.247 700.247 0 0 1-7-5 3.647 3.647 0 0 1-1.5 1c-.929-1.189-1.262-2.522-1-4-1.322-.17-2.489.163-3.5 1-.278-.916-.778-1.582-1.5-2-2.687.159-5.02-.675-7-2.5-2.83-2.644-2.496-3.478 1-2.5 1.021-.502 1.188-1.168.5-2a22.381 22.381 0 0 0-6.5-3v-3h-4a20.676 20.676 0 0 0-1-5z"/><path style="opacity:1" fill="#7730e2" d="M359.5 229.5c-.661 4.332-2.995 7.332-7 9a23.87 23.87 0 0 1 6 5c1.333 1 1.333 2 0 3-2.476-2.43-5.31-4.43-8.5-6l-4.5 3a172.15 172.15 0 0 1 6.5 13c.27-2.724.77-5.391 1.5-8 1.455-1.245 2.789-1.078 4 .5-2.315 1.368-2.315 2.201 0 2.5 1.873.018 2.206-.482 1-1.5a8.43 8.43 0 0 1 4-.5 89.452 89.452 0 0 1-14 12 2646.801 2646.801 0 0 1-5-6c-1.069-3.237-2.402-6.237-4-9a6279.642 6279.642 0 0 1 20-17z"/><path style="opacity:1" fill="#763ad1" d="M339.5 246.5c1.598 2.763 2.931 5.763 4 9a35.23 35.23 0 0 1-6-8l2-1z"/><path style="opacity:1" fill="#833ed3" d="M297.5 233.5c-.313 5.698-1.313 11.198-3 16.5a13.487 13.487 0 0 0 2 4c-.532 2.02-1.865 2.853-4 2.5-.19 3.355-1.19 6.355-3 9a903.36 903.36 0 0 0 6-29l2-3z"/><path style="opacity:1" fill="#f5bdca" d="M74.5 253.5c.722.418 1.222 1.084 1.5 2 1.011-.837 2.178-1.17 3.5-1-.262 1.478.071 2.811 1 4a3.647 3.647 0 0 0 1.5-1c2.366 1.712 4.7 3.378 7 5 2.954-.455 4.788-2.122 5.5-5l4-3c.65.304 1.317.637 2 1 1 21.323 1.333 42.656 1 64h-6v28h20v4h4v16a226.877 226.877 0 0 0-10 3 19.048 19.048 0 0 0-6-1c-15.118-9.109-28.784-20.109-41-33 2.157-.158 4.49-.158 7 0-1.789 1.123-2.122 2.456-1 4 .925-1.141 1.759-1.141 2.5 0l1-2a65.056 65.056 0 0 0 6.5 7 26.596 26.596 0 0 0 2-3.5 38.54 38.54 0 0 1-6-6.5l-3-24 2-16-2-16a516.872 516.872 0 0 0 3-26z"/><path style="opacity:1" fill="#e1b7f4" d="M295.5 236.5a903.36 903.36 0 0 1-6 29v1c-1.424 2.015-2.09 4.348-2 7v1h-1c.995-7.649 1.995-15.316 3-23 .185-2.634 1.185-4.8 3-6.5a12.992 12.992 0 0 1-1-5.5h3c-.237-1.291.096-2.291 1-3z"/><path style="opacity:1" fill="#ebbcd8" d="M173.5 254.5a67.898 67.898 0 0 0 2 7c.342.838 1.008 1.172 2 1a61.16 61.16 0 0 0 5.5 2c7.144-1.316 14.311-1.149 21.5.5l-5 1c.837 1.011 1.17 2.178 1 3.5-5.08.466-10.08.966-15 1.5 4.586.197 9.086.697 13.5 1.5a7947.476 7947.476 0 0 1-1.5 126 116.065 116.065 0 0 0 26 2h12c-18.954 1.692-37.954 1.026-57-2-.25-1.422-1.083-2.422-2.5-3-2.808 1.36-3.641.693-2.5-2 2.782-2.394 5.615-2.394 8.5 0l1.5-1a52.59 52.59 0 0 0-5.5-8c-2.531 4.29-6.031 5.123-10.5 2.5a53.73 53.73 0 0 1 9-2.5c-1.815-2.194-3.982-2.528-6.5-1l-.5-16c.026-5.746.693-11.246 2-16.5-1.746-2.259-4.08-3.592-7-4-.837-1.011-1.17-2.178-1-3.5-1.478.262-2.811-.071-4-1 2.495-1.664 4.495-3.83 6-6.5a4.934 4.934 0 0 0-3-.5v-16h3v-48h-3v-8a4.934 4.934 0 0 0 3-.5 19.745 19.745 0 0 0-5-5.5c1.505-1.342 2.172-3.008 2-5h4v3a6.846 6.846 0 0 1 4 1 185.977 185.977 0 0 1 3-2z"/><path style="opacity:1" fill="#dbacf9" d="M311.5 247.5c-.034 5.664-1.201 10.997-3.5 16l-2 12c-.377 1.442-1.21 2.442-2.5 3l5-24a60.379 60.379 0 0 0 3-7z"/><path style="opacity:1" fill="#eebcd5" d="M176.5 246.5c.703 1.307.703 2.807 0 4.5-.908 1.598-1.908 2.764-3 3.5-.982.641-1.982 1.307-3 2a6.846 6.846 0 0 0-4-1v-3h-4c.172 1.992-.495 3.658-2 5a19.745 19.745 0 0 1 5 5.5 4.934 4.934 0 0 1-3 .5v8h3v48h-3v16a4.934 4.934 0 0 1 3 .5c-1.505 2.67-3.505 4.836-6 6.5 1.189.929 2.522 1.262 4 1-.17 1.322.163 2.489 1 3.5 2.92.408 5.254 1.741 7 4-1.307 5.254-1.974 10.754-2 16.5l.5 16c2.518-1.528 4.685-1.194 6.5 1a53.73 53.73 0 0 0-9 2.5c4.469 2.623 7.969 1.79 10.5-2.5a52.59 52.59 0 0 1 5.5 8l-1.5 1c-2.885-2.394-5.718-2.394-8.5 0a112.97 112.97 0 0 1-15-.5c-3.88-2.554-8.213-4.054-13-4.5-1.675-.368-2.675-1.368-3-3 .111-.617.444-1.117 1-1.5a72.367 72.367 0 0 1 12-.5v-80h-4v-16h4a112.97 112.97 0 0 1 .5-15 4.457 4.457 0 0 0 1.5-2c-3.112-1.483-5.945-1.15-8.5 1a13.24 13.24 0 0 0-5-3 4.934 4.934 0 0 1-.5-3c5.66 1.252 11.327 1.252 17 0a8.43 8.43 0 0 0-.5-4 31.435 31.435 0 0 1-6.5 2 122.515 122.515 0 0 0-12-1.5 50.879 50.879 0 0 1-4-12.5h1c.575 3.412 1.908 6.412 4 9v2c4.481 1.148 9.148 1.315 14 .5 2.085-2.419 3.085-5.253 3-8.5.65-.304 1.317-.637 2-1a59.722 59.722 0 0 0 5-13c.65.304 1.317.637 2 1a33.689 33.689 0 0 0 3.5 9 76.092 76.092 0 0 1 2.5-12c3.658 2.492 3.991 5.492 1 9 .124.607.457.94 1 1z"/><path style="opacity:1" fill="#6646b8" d="M183.5 243.5a30.137 30.137 0 0 1-3.5 6c-.957 2.879-.457 5.379 1.5 7.5l-2 1c5.481 1.449 11.148 1.949 17 1.5h5v1h-26a81.712 81.712 0 0 1 3.5-12c.996-2.16 2.496-3.827 4.5-5z"/><path style="opacity:1" fill="#e891ca" d="M159.5 252.5c.085 3.247-.915 6.081-3 8.5-4.852.815-9.519.648-14-.5 4.532.318 8.866-.015 13-1a36.693 36.693 0 0 0 4-7z"/><path style="opacity:1" fill="#dcbcf0" d="M175.5 261.5h93c.221 1.235.888 2.235 2 3l-3.5 1c-1.973.191-3.473-.476-4.5-2a241.046 241.046 0 0 0-31-1h-54c-.992.172-1.658-.162-2-1z"/><path style="opacity:1" fill="#e3bce3" d="M268.5 261.5h1c1.585.974 2.585 2.474 3 4.5-.837 1.011-1.17 2.178-1 3.5h-6v82h4v32a25.879 25.879 0 0 0-10 1l.5 1c3.243-1.188 7.077-1.188 11.5 0 .262 1.478-.071 2.811-1 4a66.678 66.678 0 0 0-5.5 2l-7-1c-1.706.808-2.539 2.141-2.5 4 5.181-.431 10.514-.431 16 0-11.285 3.52-22.952 5.52-35 6a8567.832 8567.832 0 0 0 1.5-130c1.269-1.405 1.769-3.071 1.5-5a18.453 18.453 0 0 1-6-.5l2-1c-1.558-.21-2.891-.71-4-1.5a241.046 241.046 0 0 1 31 1c1.027 1.524 2.527 2.191 4.5 2l3.5-1c-1.112-.765-1.779-1.765-2-3z"/><path style="opacity:1" fill="#e9bcde" d="M177.5 262.5h30c-.086.996.248 1.829 1 2.5a182.858 182.858 0 0 0 25 3 375.345 375.345 0 0 0-26 2.5c7.507 1.656 14.007 2.323 19.5 2 .17 42.238.67 84.404 1.5 126.5-1.882.198-3.548.698-5 1.5a116.065 116.065 0 0 1-26-2 7947.476 7947.476 0 0 0 1.5-126 99.101 99.101 0 0 0-13.5-1.5c4.92-.534 9.92-1.034 15-1.5.17-1.322-.163-2.489-1-3.5l5-1c-7.189-1.649-14.356-1.816-21.5-.5a61.16 61.16 0 0 1-5.5-2z"/><path style="opacity:1" fill="#e6bce0" d="M207.5 262.5h24c1.109.79 2.442 1.29 4 1.5l-2 1c1.973.495 3.973.662 6 .5.269 1.929-.231 3.595-1.5 5a8567.832 8567.832 0 0 1-1.5 130h-13c1.452-.802 3.118-1.302 5-1.5-.83-42.096-1.33-84.262-1.5-126.5-5.493.323-11.993-.344-19.5-2a375.345 375.345 0 0 1 26-2.5 182.858 182.858 0 0 1-25-3c-.752-.671-1.086-1.504-1-2.5z"/><path style="opacity:1" fill="#9958d7" d="M289.5 266.5c.09 2.652-.576 4.985-2 7-.09-2.652.576-4.985 2-7z"/><path style="opacity:1" fill="#7f40c9" d="M286.5 274.5h1a76.926 76.926 0 0 0-1 10c5.863.743 11.196-.257 16-3 .067 1.459-.266 2.792-1 4-5.771.613-11.104-.054-16-2a41.73 41.73 0 0 1 1-9z"/><path style="opacity:1" fill="#dfbcea" d="M321.5 374.5a255.615 255.615 0 0 1-19 10c-2.49-.59-5.157-.757-8-.5a9.454 9.454 0 0 0 2.5-1.5c.667-12 .667-24 0-36-1.087-2.432-1.587-2.098-1.5 1h-12v-59c4.932-.2 9.932-.2 15 0 1.538.047 2.538-.62 3-2v-1c1.784-1.074 2.951-2.74 3.5-5 .497 2.646.664 5.313.5 8h4a999.914 999.914 0 0 0 2 78 10.098 10.098 0 0 0-6 1.5 83.379 83.379 0 0 0 8 3c.951.718 1.117 1.551.5 2.5a34.041 34.041 0 0 1-7.5 1.5 3.647 3.647 0 0 0-1 1.5c1.841.73 3.675 1.397 5.5 2 2.546-3.55 6.046-4.883 10.5-4z"/><path style="opacity:1" fill="#c590ec" d="M285.5 283.5c4.896 1.946 10.229 2.613 16 2v1h-17c-.237-1.291.096-2.291 1-3z"/><path style="opacity:1" fill="#e1bce7" d="M285.5 274.5a64.719 64.719 0 0 1-3 11c.02 1.226.353 2.226 1 3v59h12c-.087-3.098.413-3.432 1.5-1 .667 12 .667 24 0 36a9.454 9.454 0 0 1-2.5 1.5c2.843-.257 5.51-.09 8 .5a210.003 210.003 0 0 1-31 10c-5.486-.431-10.819-.431-16 0-.039-1.859.794-3.192 2.5-4l7 1a66.678 66.678 0 0 1 5.5-2c.929-1.189 1.262-2.522 1-4-4.423-1.188-8.257-1.188-11.5 0l-.5-1a25.879 25.879 0 0 1 10-1v-32h-4v-82h6c-.17-1.322.163-2.489 1-3.5-.415-2.026-1.415-3.526-3-4.5a226.49 226.49 0 0 1 3-24h-39c9.825-.83 19.825-1.33 30-1.5l-24-1a1535.84 1535.84 0 0 0 32-1.5v-3a283.777 283.777 0 0 1-28-2.5 394.281 394.281 0 0 0 28-1.5 42.769 42.769 0 0 0-9-1.5l-1-1a8.43 8.43 0 0 1 4-.5v-16h4a81.883 81.883 0 0 0-1-18c-1.861-1.028-3.195-2.528-4-4.5 1.109-1.813.442-2.646-2-2.5.691-1.522 1.858-2.522 3.5-3 1.3 1.207 2.8 1.874 4.5 2 1.37-5.138 2.703-10.305 4-15.5l1-1.5a9.425 9.425 0 0 1 3 3 71.363 71.363 0 0 1 6.5-8c.17-2.215.837-4.215 2-6 1.291 8.062.291 15.729-3 23-.5 31.332-.667 62.665-.5 94a4.934 4.934 0 0 0-3 .5l1 1c-1.755.72-2.589 1.887-2.5 3.5 1.558-.845 2.558-.179 3 2l3-5c.464.594.631 1.261.5 2z"/><path style="opacity:1" fill="#e3b7f2" d="M285.5 274.5h1a41.73 41.73 0 0 0-1 9c-.904.709-1.237 1.709-1 3h17c-.462 1.38-1.462 2.047-3 2-5.068-.2-10.068-.2-15 0-.647-.774-.98-1.774-1-3a64.719 64.719 0 0 0 3-11z"/><path style="opacity:1" fill="#e5c0d1" d="M127.5 382.5c4.75 1.852 9.75 2.852 15 3 .325 1.632 1.325 2.632 3 3 4.787.446 9.12 1.946 13 4.5 4.989.499 9.989.666 15 .5-1.141 2.693-.308 3.36 2.5 2 1.417.578 2.25 1.578 2.5 3-17.85-2.952-34.85-8.285-51-16z"/></svg>