<?xml version="1.0" encoding="UTF-8"?>
<!DOCTYPE svg PUBLIC "-//W3C//DTD SVG 1.1//EN" "http://www.w3.org/Graphics/SVG/1.1/DTD/svg11.dtd">
<svg xmlns="http://www.w3.org/2000/svg" version="1.1" width="256px" height="256px" style="shape-rendering:geometricPrecision; text-rendering:geometricPrecision; image-rendering:optimizeQuality; fill-rule:evenodd; clip-rule:evenodd" xmlns:xlink="http://www.w3.org/1999/xlink">
<g><path style="opacity:0.012" fill="#5d5d5d" d="M 133.5,0.5 C 133.5,0.166667 133.5,-0.166667 133.5,-0.5C 134.5,-0.5 135.5,-0.5 136.5,-0.5C 135.791,0.403972 134.791,0.737305 133.5,0.5 Z"/></g>
<g><path style="opacity:0.012" fill="#b3b3b3" d="M 138.5,1.5 C 139.251,0.426544 140.251,0.259877 141.5,1C 140.552,1.48278 139.552,1.64945 138.5,1.5 Z"/></g>
<g><path style="opacity:0.008" fill="#c2c2c2" d="M 142.5,2.5 C 142.897,1.47498 143.563,1.30831 144.5,2C 143.906,2.46434 143.239,2.63101 142.5,2.5 Z"/></g>
<g><path style="opacity:0.012" fill="#626262" d="M 145.5,3.5 C 145.897,2.47498 146.563,2.30831 147.5,3C 146.906,3.46434 146.239,3.63101 145.5,3.5 Z"/></g>
<g><path style="opacity:0.38" fill="#555054" d="M 100.5,-0.5 C 109.5,-0.5 118.5,-0.5 127.5,-0.5C 129.265,0.461384 131.265,0.794717 133.5,0.5C 134.919,1.45115 136.585,1.78448 138.5,1.5C 139.568,2.43448 140.901,2.76781 142.5,2.5C 143.209,3.40397 144.209,3.73731 145.5,3.5C 146.672,4.70527 148.005,4.70527 149.5,3.5C 151.136,6.49284 153.469,7.49284 156.5,6.5C 159.875,7.90302 163.209,9.40302 166.5,11C 166.057,12.5185 166.724,13.6852 168.5,14.5C 169.451,13.6744 170.451,13.5078 171.5,14C 173.5,15.3333 175.5,16.6667 177.5,18C 176.742,19.3639 177.242,20.5305 179,21.5C 180.84,20.1669 181.34,20.3335 180.5,22C 181.333,22.8333 182.167,23.6667 183,24.5C 184.84,23.1669 185.34,23.3335 184.5,25C 189.988,29.445 195.822,34.945 202,41.5C 203.566,40.9394 204.899,41.6061 206,43.5C 206.617,44.4491 206.451,45.2825 205.5,46C 207.123,48.0795 208.623,50.2462 210,52.5C 210.667,53.8333 211.333,53.8333 212,52.5C 212.617,53.4491 212.451,54.2825 211.5,55C 217.069,66.6377 222.736,78.1377 228.5,89.5C 228.5,91.5 228.5,93.5 228.5,95.5C 227.448,95.6495 226.448,95.4828 225.5,95C 225.131,92.5316 223.631,90.365 221,88.5C 220.282,89.4506 219.449,89.6172 218.5,89C 217.167,87.6667 215.833,86.3333 214.5,85C 214.833,84.6667 215.167,84.3333 215.5,84C 213.297,81.6278 210.963,79.4611 208.5,77.5C 208.5,76.8333 208.167,76.5 207.5,76.5C 207.5,75.8333 207.167,75.5 206.5,75.5C 206.158,74.6618 205.492,74.3284 204.5,74.5C 204.328,75.4916 204.662,76.1583 205.5,76.5C 205.263,77.791 205.596,78.791 206.5,79.5C 210.054,90.1907 211.387,101.191 210.5,112.5C 209.566,113.568 209.232,114.901 209.5,116.5C 208.596,117.209 208.263,118.209 208.5,119.5C 207.596,120.209 207.263,121.209 207.5,122.5C 206.662,122.842 206.328,123.508 206.5,124.5C 205.662,124.842 205.328,125.508 205.5,126.5C 204.662,126.842 204.328,127.508 204.5,128.5C 203.833,128.5 203.5,128.833 203.5,129.5C 202.662,129.842 202.328,130.508 202.5,131.5C 201.662,131.842 201.328,132.508 201.5,133.5C 200.833,133.5 200.5,133.833 200.5,134.5C 199.662,134.842 199.328,135.508 199.5,136.5C 198.053,137.134 197.387,138.301 197.5,140C 200.447,152.396 206.114,163.23 214.5,172.5C 212.721,174.344 210.388,175.01 207.5,174.5C 204.022,174.335 200.689,173.002 197.5,170.5C 196.817,170.863 196.15,171.196 195.5,171.5C 196.434,175.373 197.934,179.039 200,182.5C 201.008,182.982 202.175,183.148 203.5,183C 204.925,184.362 205.758,185.862 206,187.5C 206.718,186.549 207.551,186.383 208.5,187C 210.663,191.055 213.663,194.889 217.5,198.5C 217.5,199.5 217.5,200.5 217.5,201.5C 214.612,200.99 212.279,201.656 210.5,203.5C 209.833,203.5 209.5,203.167 209.5,202.5C 209.167,201.167 208.833,201.167 208.5,202.5C 207.833,202.5 207.167,202.5 206.5,202.5C 202.611,202.806 198.945,202.806 195.5,202.5C 201.974,200.372 208.641,199.206 215.5,199C 207.231,190.888 198.565,183.388 189.5,176.5C 191.861,177.435 194.028,178.768 196,180.5C 195.639,177.076 194.639,173.742 193,170.5C 192.505,168.527 192.338,166.527 192.5,164.5C 197.715,166.441 202.715,168.941 207.5,172C 208.872,172.402 210.205,172.902 211.5,173.5C 211.833,173.167 212.167,172.833 212.5,172.5C 204.354,162.874 198.854,151.874 196,139.5C 195.617,140.056 195.117,140.389 194.5,140.5C 194.5,140.167 194.5,139.833 194.5,139.5C 195.752,137.999 196.752,136.332 197.5,134.5C 207.618,121.944 211.118,107.61 208,91.5C 206.457,84.8699 204.123,78.5366 201,72.5C 198.552,67.2479 195.386,62.5812 191.5,58.5C 191.897,57.475 192.563,57.3083 193.5,58C 195.37,60.0396 197.37,61.8729 199.5,63.5C 206.799,72.4665 214.799,80.7999 223.5,88.5C 224.363,89.463 225.03,89.463 225.5,88.5C 222.392,81.2876 219.058,74.2876 215.5,67.5C 212.326,60.1539 208.492,53.1539 204,46.5C 188.317,27.4834 168.817,13.9834 145.5,6C 140.937,4.52508 136.27,3.69175 131.5,3.5C 118.415,-0.885867 105.415,-0.385867 92.5,5C 88.8252,7.82751 86.1585,11.3275 84.5,15.5C 82.69,23.7734 84.3567,31.44 89.5,38.5C 89.3333,38.8333 89.1667,39.1667 89,39.5C 88.0513,37.9069 86.8846,36.5736 85.5,35.5C 84.1851,31.9156 83.0184,28.2489 82,24.5C 59.9848,35.1814 49.8181,52.8481 51.5,77.5C 50.792,99.1515 54.792,119.818 63.5,139.5C 61.1904,136.898 59.3571,133.898 58,130.5C 52.5062,142.672 44.6728,153.172 34.5,162C 42.9246,161.25 50.9246,158.75 58.5,154.5C 59.8535,159.495 59.0202,164.161 56,168.5C 52.201,173.301 48.0343,177.801 43.5,182C 49.5539,181.658 55.5539,180.658 61.5,179C 62.6853,177.647 64.0186,176.48 65.5,175.5C 66.1067,175.624 66.44,175.957 66.5,176.5C 63.808,178.862 61.1413,181.196 58.5,183.5C 52.9219,188.575 47.4219,193.909 42,199.5C 41.3333,200.167 41.3333,200.833 42,201.5C 52.7557,200.262 63.2557,201.595 73.5,205.5C 61.6736,206.999 50.007,209.333 38.5,212.5C 36.6203,212.229 35.287,212.896 34.5,214.5C 33.1667,214.5 32.5,215.167 32.5,216.5C 30.5809,213.916 28.9142,214.25 27.5,217.5C 30.2239,222.534 32.8906,227.534 35.5,232.5C 35.6716,233.492 35.3382,234.158 34.5,234.5C 34.3404,232.847 33.6737,231.514 32.5,230.5C 32.0679,229.29 31.4013,228.29 30.5,227.5C 30.6716,226.508 30.3382,225.842 29.5,225.5C 29.6716,224.508 29.3382,223.842 28.5,223.5C 28.6716,222.508 28.3382,221.842 27.5,221.5C 25.1271,218.455 25.1271,215.455 27.5,212.5C 28.1667,212.833 28.8333,213.167 29.5,213.5C 31.3497,212.758 32.0164,211.758 31.5,210.5C 32.9171,212.415 34.5838,212.415 36.5,210.5C 38.099,210.768 39.4324,210.434 40.5,209.5C 42.099,209.768 43.4324,209.434 44.5,208.5C 47.8738,208.326 51.2072,207.826 54.5,207C 47.8333,206.333 47.8333,205.667 54.5,205C 49.9132,204.201 45.4132,204.368 41,205.5C 39.1932,203.294 39.0265,200.961 40.5,198.5C 41.1667,198.5 41.5,198.167 41.5,197.5C 42.9314,195.563 44.5981,193.73 46.5,192C 46.1667,191.667 45.8333,191.333 45.5,191C 47.505,189.15 49.505,187.983 51.5,187.5C 51.8333,187.5 52.1667,187.5 52.5,187.5C 53.3382,187.158 53.6716,186.492 53.5,185.5C 54.1667,185.5 54.5,185.167 54.5,184.5C 55.1667,184.5 55.5,184.167 55.5,183.5C 56.2891,183.217 56.9558,182.717 57.5,182C 55.9343,181.235 54.6009,181.402 53.5,182.5C 53.1667,182.5 52.8333,182.5 52.5,182.5C 50.901,182.232 49.5676,182.566 48.5,183.5C 48.1667,183.5 47.8333,183.5 47.5,183.5C 45.5853,183.216 43.9187,183.549 42.5,184.5C 41.325,184.719 40.325,184.386 39.5,183.5C 40.3128,182.186 41.3128,181.019 42.5,180C 42.1667,179.667 41.8333,179.333 41.5,179C 43.3333,177.167 45.1667,175.333 47,173.5C 47.3333,173.833 47.6667,174.167 48,174.5C 50.5402,172.295 52.7068,169.795 54.5,167C 53.7146,164.958 54.048,162.958 55.5,161C 54.9056,160.536 54.2389,160.369 53.5,160.5C 52.8333,159.167 52.1667,159.167 51.5,160.5C 49.1024,162.974 46.1024,164.308 42.5,164.5C 39.6558,163.449 36.6558,163.449 33.5,164.5C 33.1024,162.46 32.9358,160.46 33,158.5C 37.3387,153.446 42.0053,149.446 47,146.5C 50.4005,141.423 53.4005,136.089 56,130.5C 56.1932,127.636 55.6932,124.97 54.5,122.5C 54.7678,120.901 54.4345,119.568 53.5,118.5C 53.7845,116.585 53.4511,114.919 52.5,113.5C 52.7947,111.265 52.4614,109.265 51.5,107.5C 51.8016,104.941 51.4682,102.607 50.5,100.5C 46.9605,83.1579 48.1271,66.1579 54,49.5C 55.1227,46.7513 56.6227,44.2513 58.5,42C 58.0426,41.586 57.7093,41.086 57.5,40.5C 59.8391,39.8844 61.8391,38.2177 63.5,35.5C 64.1667,35.5 64.5,35.1667 64.5,34.5C 65.1667,34.5 65.5,34.1667 65.5,33.5C 66.1667,33.5 66.5,33.1667 66.5,32.5C 67.1667,32.5 67.5,32.1667 67.5,31.5C 69.5053,30.746 70.172,29.5793 69.5,28C 70.4491,27.3828 71.2825,27.5494 72,28.5C 73.7583,27.5305 74.2583,26.3639 73.5,25C 78.1419,24.0956 80.3086,21.2623 80,16.5C 80.3333,18.8333 80.6667,21.1667 81,23.5C 81.2969,20.086 81.9635,16.7527 83,13.5C 85.7969,9.70121 88.9636,6.20121 92.5,3C 92.1667,2.66667 91.8333,2.33333 91.5,2C 94.6961,1.9218 97.6961,1.08846 100.5,-0.5 Z M 204.5,74.5 C 205.492,74.3284 206.158,74.6618 206.5,75.5C 205.833,75.5 205.5,75.8333 205.5,76.5C 204.662,76.1583 204.328,75.4916 204.5,74.5 Z M 194.5,167.5 C 195.239,167.369 195.906,167.536 196.5,168C 195.663,169.011 195.33,170.178 195.5,171.5C 194.566,170.432 194.232,169.099 194.5,167.5 Z"/></g>
<g><path style="opacity:1" fill="#d26ac1" d="M 131.5,3.5 C 146.289,7.04649 159.955,13.2132 172.5,22C 189.494,33.8253 203.161,48.6587 213.5,66.5C 213.957,67.2975 214.624,67.6309 215.5,67.5C 219.058,74.2876 222.392,81.2876 225.5,88.5C 225.03,89.463 224.363,89.463 223.5,88.5C 217.858,82.0174 212.358,75.3507 207,68.5C 204.6,66.5854 202.1,64.9188 199.5,63.5C 197.37,61.8729 195.37,60.0396 193.5,58C 192.563,57.3083 191.897,57.475 191.5,58.5C 188.082,57.3706 185.249,55.3706 183,52.5C 182.833,52.8333 182.667,53.1667 182.5,53.5C 203.704,77.4397 208.704,104.44 197.5,134.5C 196.752,136.332 195.752,137.999 194.5,139.5C 194.946,128.992 194.446,118.326 193,107.5C 192.14,102.12 189.974,97.4534 186.5,93.5C 185.773,91.0462 184.773,88.7128 183.5,86.5C 181.006,76.5102 176.173,67.8435 169,60.5C 168.833,60.8333 168.667,61.1667 168.5,61.5C 177.953,75.4137 183.786,90.7471 186,107.5C 186.278,106.584 186.778,105.918 187.5,105.5C 187.726,112.876 187.392,120.209 186.5,127.5C 182.878,105.92 173.211,87.5869 157.5,72.5C 156.781,70.6827 155.781,70.0161 154.5,70.5C 157.956,75.0776 160.622,80.0776 162.5,85.5C 162.877,88.5248 163.044,91.5248 163,94.5C 161.992,94.0183 160.825,93.8516 159.5,94C 152.384,75.0538 140.717,59.7205 124.5,48C 116.009,43.9218 107.676,39.5884 99.5,35C 93.4038,29.2899 88.4038,22.7899 84.5,15.5C 86.1585,11.3275 88.8252,7.82751 92.5,5C 105.415,-0.385867 118.415,-0.885867 131.5,3.5 Z M 204.5,74.5 C 205.492,74.3284 206.158,74.6618 206.5,75.5C 205.833,75.5 205.5,75.8333 205.5,76.5C 204.662,76.1583 204.328,75.4916 204.5,74.5 Z"/></g>
<g><path style="opacity:1" fill="#955393" d="M 84.5,15.5 C 88.4038,22.7899 93.4038,29.2899 99.5,35C 107.676,39.5884 116.009,43.9218 124.5,48C 140.717,59.7205 152.384,75.0538 159.5,94C 160.825,93.8516 161.992,94.0183 163,94.5C 163.044,91.5248 162.877,88.5248 162.5,85.5C 164.167,89.5 165.833,93.5 167.5,97.5C 167.993,99.8056 168.326,102.139 168.5,104.5C 166.928,101.785 165.928,98.7846 165.5,95.5C 163.219,95.0773 161.552,95.744 160.5,97.5C 159.5,96.8333 158.5,96.1667 157.5,95.5C 153.197,90.1912 148.863,84.8579 144.5,79.5C 141.914,76.6421 139.58,73.6421 137.5,70.5C 136.094,70.0269 135.427,69.0269 135.5,67.5C 133.949,64.4372 131.782,61.7705 129,59.5C 128.601,59.7284 128.435,60.0618 128.5,60.5C 127.233,59.913 126.233,59.913 125.5,60.5C 131.463,67.7837 136.129,75.7837 139.5,84.5C 138.527,82.8608 137.194,81.5274 135.5,80.5C 132.531,77.3581 129.698,74.0247 127,70.5C 124.412,67.8001 121.579,65.4668 118.5,63.5C 118.027,62.0937 117.027,61.427 115.5,61.5C 109.487,57.0658 103.321,52.7324 97,48.5C 96.5357,49.0944 96.369,49.7611 96.5,50.5C 96.5,51.1667 96.5,51.8333 96.5,52.5C 90.578,48.3297 86.9113,42.6631 85.5,35.5C 86.8846,36.5736 88.0513,37.9069 89,39.5C 89.1667,39.1667 89.3333,38.8333 89.5,38.5C 84.3567,31.44 82.69,23.7734 84.5,15.5 Z"/></g>
<g><path style="opacity:1" fill="#d069c0" d="M 85.5,35.5 C 86.9113,42.6631 90.578,48.3297 96.5,52.5C 96.5628,57.2029 96.2295,61.8696 95.5,66.5C 95.552,68.9029 95.2186,71.2362 94.5,73.5C 91.7743,76.6061 89.7743,80.2728 88.5,84.5C 88.6716,85.4916 88.3382,86.1583 87.5,86.5C 86.2058,87.2899 85.0391,88.2899 84,89.5C 83.3666,85.6526 82.5333,81.986 81.5,78.5C 80.4347,72.1857 79.4347,65.8524 78.5,59.5C 77.4209,63.6437 77.4209,67.8104 78.5,72C 78.6052,74.1782 77.9385,76.0115 76.5,77.5C 66.5118,89.655 62.6784,103.655 65,119.5C 67.688,135.087 73.188,149.42 81.5,162.5C 83.7061,168.579 86.7061,174.245 90.5,179.5C 90.631,180.239 90.4643,180.906 90,181.5C 89.2917,180.619 88.4584,179.953 87.5,179.5C 87.573,177.973 86.9063,176.973 85.5,176.5C 77.7421,165.323 70.7421,153.656 64.5,141.5C 64.6716,140.508 64.3382,139.842 63.5,139.5C 54.792,119.818 50.792,99.1515 51.5,77.5C 49.8181,52.8481 59.9848,35.1814 82,24.5C 83.0184,28.2489 84.1851,31.9156 85.5,35.5 Z"/></g>
<g><path style="opacity:1" fill="#da8acc" d="M 131.5,3.5 C 136.27,3.69175 140.937,4.52508 145.5,6C 168.817,13.9834 188.317,27.4834 204,46.5C 208.492,53.1539 212.326,60.1539 215.5,67.5C 214.624,67.6309 213.957,67.2975 213.5,66.5C 203.161,48.6587 189.494,33.8253 172.5,22C 159.955,13.2132 146.289,7.04649 131.5,3.5 Z"/></g>
<g><path style="opacity:0.024" fill="#61565f" d="M 67.5,31.5 C 66.8333,31.5 66.5,31.8333 66.5,32.5C 65.8333,32.5 65.5,32.8333 65.5,33.5C 64.8333,33.5 64.5,33.8333 64.5,34.5C 63.8333,34.5 63.5,34.8333 63.5,35.5C 62.8817,33.3364 63.8817,31.6697 66.5,30.5C 67.1067,30.6236 67.44,30.9569 67.5,31.5 Z"/></g>
<g><path style="opacity:1" fill="#b59332" d="M 115.5,61.5 C 114.527,63.1392 113.194,64.4726 111.5,65.5C 111.586,64.5041 111.252,63.6708 110.5,63C 105.721,60.6969 101.387,57.8635 97.5,54.5C 97.7678,52.901 97.4345,51.5676 96.5,50.5C 96.369,49.7611 96.5357,49.0944 97,48.5C 103.321,52.7324 109.487,57.0658 115.5,61.5 Z"/></g>
<g><path style="opacity:1" fill="#da8bcc" d="M 191.5,58.5 C 195.386,62.5812 198.552,67.2479 201,72.5C 204.123,78.5366 206.457,84.8699 208,91.5C 211.118,107.61 207.618,121.944 197.5,134.5C 208.704,104.44 203.704,77.4397 182.5,53.5C 182.667,53.1667 182.833,52.8333 183,52.5C 185.249,55.3706 188.082,57.3706 191.5,58.5 Z"/></g>
<g><path style="opacity:1" fill="#664d47" d="M 96.5,50.5 C 97.4345,51.5676 97.7678,52.901 97.5,54.5C 97.665,57.8499 97.4983,61.1832 97,64.5C 96.7216,65.4158 96.2216,66.0825 95.5,66.5C 96.2295,61.8696 96.5628,57.2029 96.5,52.5C 96.5,51.8333 96.5,51.1667 96.5,50.5 Z"/></g>
<g><path style="opacity:1" fill="#483646" d="M 135.5,67.5 C 132.833,65.5 130.5,63.1667 128.5,60.5C 128.435,60.0618 128.601,59.7284 129,59.5C 131.782,61.7705 133.949,64.4372 135.5,67.5 Z"/></g>
<g><path style="opacity:1" fill="#da89cc" d="M 183.5,86.5 C 182.957,86.56 182.624,86.8933 182.5,87.5C 185.102,93.243 186.769,99.243 187.5,105.5C 186.778,105.918 186.278,106.584 186,107.5C 183.786,90.7471 177.953,75.4137 168.5,61.5C 168.667,61.1667 168.833,60.8333 169,60.5C 176.173,67.8435 181.006,76.5102 183.5,86.5 Z"/></g>
<g><path style="opacity:1" fill="#583d55" d="M 81.5,78.5 C 80.7784,78.0825 80.2784,77.4158 80,76.5C 78.8111,78.2331 77.6444,79.8998 76.5,81.5C 76.5,80.1667 76.5,78.8333 76.5,77.5C 77.9385,76.0115 78.6052,74.1782 78.5,72C 77.4209,67.8104 77.4209,63.6437 78.5,59.5C 79.4347,65.8524 80.4347,72.1857 81.5,78.5 Z"/></g>
<g><path style="opacity:1" fill="#46b3ca" d="M 115.5,61.5 C 117.027,61.427 118.027,62.0937 118.5,63.5C 117.925,65.4113 116.925,67.078 115.5,68.5C 111.844,73.1277 108.178,77.7944 104.5,82.5C 102.413,83.5846 101.08,85.2512 100.5,87.5C 98.7376,88.2623 97.7376,89.5956 97.5,91.5C 95.4131,92.5846 94.0798,94.2512 93.5,96.5C 91.322,97.6566 89.322,98.9899 87.5,100.5C 87.1667,100.5 86.8333,100.5 86.5,100.5C 86.0618,100.565 85.7284,100.399 85.5,100C 87.1412,98.871 88.1412,97.371 88.5,95.5C 88.427,93.9731 89.0937,92.9731 90.5,92.5C 92.5869,91.4154 93.9202,89.7488 94.5,87.5C 96.5869,86.4154 97.9202,84.7488 98.5,82.5C 100.587,81.4154 101.92,79.7488 102.5,77.5C 105.5,73.5 108.5,69.5 111.5,65.5C 113.194,64.4726 114.527,63.1392 115.5,61.5 Z"/></g>
<g><path style="opacity:1" fill="#b61e8f" d="M 115.5,68.5 C 117.308,68.4914 118.975,68.9914 120.5,70C 126.79,75.4485 132.124,81.6152 136.5,88.5C 136.5,88.8333 136.5,89.1667 136.5,89.5C 132.004,95.1559 128.004,101.156 124.5,107.5C 123.711,107.783 123.044,108.283 122.5,109C 125.735,109.229 128.735,109.396 131.5,109.5C 124.86,115.473 118.527,121.806 112.5,128.5C 104.444,135.555 97.1102,143.221 90.5,151.5C 89.5,151.833 88.8333,152.5 88.5,153.5C 87.3951,154.6 86.0618,155.267 84.5,155.5C 82.2167,150.602 80.2167,145.602 78.5,140.5C 78.5,139.833 78.5,139.167 78.5,138.5C 78.6596,136.847 79.3263,135.514 80.5,134.5C 83.5254,132.798 84.8587,130.131 84.5,126.5C 80.6286,126.815 76.9619,126.482 73.5,125.5C 75.914,124.089 77.5806,122.089 78.5,119.5C 86.4879,125.112 95.1546,126.612 104.5,124C 108.407,121.879 112.407,120.045 116.5,118.5C 117.043,118.44 117.376,118.107 117.5,117.5C 116.639,115.089 115.306,113.089 113.5,111.5C 112.277,107.951 110.277,104.951 107.5,102.5C 106.5,101.833 105.5,101.167 104.5,100.5C 101.073,98.4334 97.4065,97.1001 93.5,96.5C 95.5869,95.4154 96.9202,93.7488 97.5,91.5C 97.7376,89.5956 98.7376,88.2623 100.5,87.5C 102.587,86.4154 103.92,84.7488 104.5,82.5C 108.178,77.7944 111.844,73.1277 115.5,68.5 Z"/></g>
<g><path style="opacity:0.995" fill="#9b559a" d="M 199.5,63.5 C 202.1,64.9188 204.6,66.5854 207,68.5C 212.358,75.3507 217.858,82.0174 223.5,88.5C 214.799,80.7999 206.799,72.4665 199.5,63.5 Z"/></g>
<g><path style="opacity:1" fill="#453939" d="M 137.5,70.5 C 139.58,73.6421 141.914,76.6421 144.5,79.5C 143.904,80.9354 143.904,82.602 144.5,84.5C 142.186,79.8721 139.853,75.2054 137.5,70.5 Z"/></g>
<g><path style="opacity:0.012" fill="#434343" d="M 207.5,76.5 C 208.167,76.5 208.5,76.8333 208.5,77.5C 208.167,78.5 207.5,79.1667 206.5,79.5C 206.263,78.209 206.596,77.209 207.5,76.5 Z"/></g>
<g><path style="opacity:1" fill="#892077" d="M 118.5,63.5 C 121.579,65.4668 124.412,67.8001 127,70.5C 129.698,74.0247 132.531,77.3581 135.5,80.5C 136.471,82.4832 137.471,84.4832 138.5,86.5C 137.833,87.1667 137.167,87.8333 136.5,88.5C 132.124,81.6152 126.79,75.4485 120.5,70C 118.975,68.9914 117.308,68.4914 115.5,68.5C 116.925,67.078 117.925,65.4113 118.5,63.5 Z"/></g>
<g><path style="opacity:1" fill="#ce68bd" d="M 128.5,60.5 C 130.5,63.1667 132.833,65.5 135.5,67.5C 135.427,69.0269 136.094,70.0269 137.5,70.5C 139.853,75.2054 142.186,79.8721 144.5,84.5C 145.135,87.4929 145.301,90.4929 145,93.5C 144.051,91.9069 142.885,90.5736 141.5,89.5C 141.107,87.7162 140.441,86.0495 139.5,84.5C 136.129,75.7837 131.463,67.7837 125.5,60.5C 126.233,59.913 127.233,59.913 128.5,60.5 Z"/></g>
<g><path style="opacity:1" fill="#48504b" d="M 102.5,77.5 C 101.92,79.7488 100.587,81.4154 98.5,82.5C 99.0798,80.2512 100.413,78.5846 102.5,77.5 Z"/></g>
<g><path style="opacity:1" fill="#483a41" d="M 157.5,72.5 C 160.833,78.5 164.167,84.5 167.5,90.5C 166.897,92.6257 166.897,94.9591 167.5,97.5C 165.833,93.5 164.167,89.5 162.5,85.5C 160.622,80.0776 157.956,75.0776 154.5,70.5C 155.781,70.0161 156.781,70.6827 157.5,72.5 Z"/></g>
<g><path style="opacity:1" fill="#50413c" d="M 94.5,73.5 C 93.2583,77.6553 91.2583,81.322 88.5,84.5C 89.7743,80.2728 91.7743,76.6061 94.5,73.5 Z"/></g>
<g><path style="opacity:1" fill="#ac8a25" d="M 81.5,78.5 C 81.7322,84.6159 81.0655,90.6159 79.5,96.5C 79.6309,97.3764 79.2975,98.0431 78.5,98.5C 77.6764,95.2152 77.1764,91.8818 77,88.5C 70.6221,97.3078 68.7888,106.974 71.5,117.5C 70.8902,118.391 70.5569,119.391 70.5,120.5C 69.2521,119.666 68.5854,118.333 68.5,116.5C 69.2929,110.86 69.6262,105.193 69.5,99.5C 70.5664,97.2986 71.233,94.9653 71.5,92.5C 74.4804,89.4931 76.147,85.8265 76.5,81.5C 77.6444,79.8998 78.8111,78.2331 80,76.5C 80.2784,77.4158 80.7784,78.0825 81.5,78.5 Z"/></g>
<g><path style="opacity:1" fill="#563c55" d="M 81.5,78.5 C 82.5333,81.986 83.3666,85.6526 84,89.5C 85.0391,88.2899 86.2058,87.2899 87.5,86.5C 85.3115,90.2071 82.6448,93.5405 79.5,96.5C 81.0655,90.6159 81.7322,84.6159 81.5,78.5 Z"/></g>
<g><path style="opacity:1" fill="#425254" d="M 98.5,82.5 C 97.9202,84.7488 96.5869,86.4154 94.5,87.5C 95.0798,85.2512 96.4131,83.5846 98.5,82.5 Z"/></g>
<g><path style="opacity:1" fill="#54344a" d="M 104.5,82.5 C 103.92,84.7488 102.587,86.4154 100.5,87.5C 101.08,85.2512 102.413,83.5846 104.5,82.5 Z"/></g>
<g><path style="opacity:1" fill="#b29131" d="M 144.5,79.5 C 148.863,84.8579 153.197,90.1912 157.5,95.5C 159.097,97.7564 158.431,99.0897 155.5,99.5C 153.683,94.5404 150.85,90.2071 147,86.5C 146.601,86.7284 146.435,87.0618 146.5,87.5C 145.833,86.5 145.167,85.5 144.5,84.5C 143.904,82.602 143.904,80.9354 144.5,79.5 Z"/></g>
<g><path style="opacity:1" fill="#40323e" d="M 135.5,80.5 C 137.194,81.5274 138.527,82.8608 139.5,84.5C 140.441,86.0495 141.107,87.7162 141.5,89.5C 140.272,88.6935 139.272,87.6935 138.5,86.5C 137.471,84.4832 136.471,82.4832 135.5,80.5 Z"/></g>
<g><path style="opacity:1" fill="#443932" d="M 76.5,81.5 C 76.147,85.8265 74.4804,89.4931 71.5,92.5C 72.3764,88.4179 74.0431,84.7512 76.5,81.5 Z"/></g>
<g><path style="opacity:0.012" fill="#393939" d="M 229.5,89.5 C 229.167,89.5 228.833,89.5 228.5,89.5C 228.833,86.8333 229.167,86.8333 229.5,89.5 Z"/></g>
<g><path style="opacity:1" fill="#fbc82c" d="M 155.5,99.5 C 150.021,102.311 146.355,106.644 144.5,112.5C 142.674,114.455 142.174,116.788 143,119.5C 150.95,125.451 159.784,127.117 169.5,124.5C 171.614,125.36 172.78,127.027 173,129.5C 175.223,143.512 172.723,156.512 165.5,168.5C 165.167,169.167 164.833,169.833 164.5,170.5C 162.147,171.34 160.147,172.674 158.5,174.5C 150.175,178.553 141.508,181.72 132.5,184C 125.667,184.932 119.334,183.765 113.5,180.5C 105.72,174.424 98.0529,168.091 90.5,161.5C 93.5703,158.436 96.2369,155.103 98.5,151.5C 100.833,149.833 102.833,147.833 104.5,145.5C 104.833,144.833 105.167,144.167 105.5,143.5C 107.5,142.167 109.167,140.5 110.5,138.5C 111.167,137.5 111.833,136.5 112.5,135.5C 121.771,125.728 131.271,116.062 141,106.5C 141.432,105.4 140.932,104.733 139.5,104.5C 135.957,105.213 132.623,106.213 129.5,107.5C 127.666,108.494 125.999,108.494 124.5,107.5C 128.004,101.156 132.004,95.1559 136.5,89.5C 139.471,92.7537 141.971,96.4204 144,100.5C 144.708,99.6195 145.542,98.9528 146.5,98.5C 147.62,94.9829 147.62,91.3163 146.5,87.5C 146.435,87.0618 146.601,86.7284 147,86.5C 150.85,90.2071 153.683,94.5404 155.5,99.5 Z"/></g>
<g><path style="opacity:1" fill="#f5c52c" d="M 97.5,54.5 C 101.387,57.8635 105.721,60.6969 110.5,63C 111.252,63.6708 111.586,64.5041 111.5,65.5C 108.5,69.5 105.5,73.5 102.5,77.5C 100.413,78.5846 99.0798,80.2512 98.5,82.5C 96.4131,83.5846 95.0798,85.2512 94.5,87.5C 92.4131,88.5846 91.0798,90.2512 90.5,92.5C 89.0937,92.9731 88.427,93.9731 88.5,95.5C 85.4475,98.5762 82.6142,101.91 80,105.5C 78.295,107.577 77.1283,109.91 76.5,112.5C 74.6053,113.973 72.9387,115.64 71.5,117.5C 68.7888,106.974 70.6221,97.3078 77,88.5C 77.1764,91.8818 77.6764,95.2152 78.5,98.5C 79.2975,98.0431 79.6309,97.3764 79.5,96.5C 82.6448,93.5405 85.3115,90.2071 87.5,86.5C 88.3382,86.1583 88.6716,85.4916 88.5,84.5C 91.2583,81.322 93.2583,77.6553 94.5,73.5C 95.2186,71.2362 95.552,68.9029 95.5,66.5C 96.2216,66.0825 96.7216,65.4158 97,64.5C 97.4983,61.1832 97.665,57.8499 97.5,54.5 Z"/></g>
<g><path style="opacity:1" fill="#465a59" d="M 94.5,87.5 C 93.9202,89.7488 92.5869,91.4154 90.5,92.5C 91.0798,90.2512 92.4131,88.5846 94.5,87.5 Z"/></g>
<g><path style="opacity:1" fill="#965395" d="M 157.5,72.5 C 173.211,87.5869 182.878,105.92 186.5,127.5C 186.5,127.833 186.5,128.167 186.5,128.5C 186.5,128.833 186.5,129.167 186.5,129.5C 184.928,132.215 183.928,135.215 183.5,138.5C 182.833,140.5 182.167,142.5 181.5,144.5C 179.848,137.39 178.848,130.057 178.5,122.5C 178.5,121.833 178.5,121.167 178.5,120.5C 178.237,115.876 177.237,111.542 175.5,107.5C 174.624,103.418 172.957,99.7512 170.5,96.5C 169.529,94.5168 168.529,92.5168 167.5,90.5C 164.167,84.5 160.833,78.5 157.5,72.5 Z"/></g>
<g><path style="opacity:0.012" fill="#767676" d="M 229.5,89.5 C 230.573,90.2506 230.74,91.2506 230,92.5C 229.517,91.552 229.351,90.552 229.5,89.5 Z"/></g>
<g><path style="opacity:1" fill="#6b4660" d="M 144.5,84.5 C 145.167,85.5 145.833,86.5 146.5,87.5C 147.62,91.3163 147.62,94.9829 146.5,98.5C 144.404,95.7378 142.738,92.7378 141.5,89.5C 142.885,90.5736 144.051,91.9069 145,93.5C 145.301,90.4929 145.135,87.4929 144.5,84.5 Z"/></g>
<g><path style="opacity:1" fill="#52324a" d="M 97.5,91.5 C 96.9202,93.7488 95.5869,95.4154 93.5,96.5C 94.0798,94.2512 95.4131,92.5846 97.5,91.5 Z"/></g>
<g><path style="opacity:1" fill="#b69433" d="M 138.5,86.5 C 139.272,87.6935 140.272,88.6935 141.5,89.5C 142.738,92.7378 144.404,95.7378 146.5,98.5C 145.542,98.9528 144.708,99.6195 144,100.5C 141.971,96.4204 139.471,92.7537 136.5,89.5C 136.5,89.1667 136.5,88.8333 136.5,88.5C 137.167,87.8333 137.833,87.1667 138.5,86.5 Z"/></g>
<g><path style="opacity:1" fill="#9b7f32" d="M 167.5,90.5 C 168.529,92.5168 169.529,94.5168 170.5,96.5C 169.791,97.404 168.791,97.7373 167.5,97.5C 166.897,94.9591 166.897,92.6257 167.5,90.5 Z"/></g>
<g><path style="opacity:1" fill="#995497" d="M 76.5,77.5 C 76.5,78.8333 76.5,80.1667 76.5,81.5C 74.0431,84.7512 72.3764,88.4179 71.5,92.5C 71.233,94.9653 70.5664,97.2986 69.5,99.5C 65.9113,114.72 67.5779,129.387 74.5,143.5C 75.6483,147.787 77.315,151.787 79.5,155.5C 80.1667,157.833 80.8333,160.167 81.5,162.5C 73.188,149.42 67.688,135.087 65,119.5C 62.6784,103.655 66.5118,89.655 76.5,77.5 Z"/></g>
<g><path style="opacity:1" fill="#31302f" d="M 93.5,96.5 C 97.4065,97.1001 101.073,98.4334 104.5,100.5C 103.624,100.369 102.957,100.702 102.5,101.5C 103.63,102.622 104.297,103.956 104.5,105.5C 105.23,114.937 100.896,119.104 91.5,118C 86.9166,114.65 85.4166,110.15 87,104.5C 88.298,103.054 88.4646,101.721 87.5,100.5C 89.322,98.9899 91.322,97.6566 93.5,96.5 Z"/></g>
<g><path style="opacity:0.016" fill="#565656" d="M 211.5,112.5 C 211.334,105.825 211.5,99.1583 212,92.5C 212.821,99.3464 212.654,106.013 211.5,112.5 Z"/></g>
<g><path style="opacity:1" fill="#9b559a" d="M 186.5,93.5 C 189.974,97.4534 192.14,102.12 193,107.5C 194.446,118.326 194.946,128.992 194.5,139.5C 194.5,139.833 194.5,140.167 194.5,140.5C 191.885,142.379 189.719,144.712 188,147.5C 189.57,133.981 189.903,120.314 189,106.5C 188.582,102.066 187.749,97.7328 186.5,93.5 Z"/></g>
<g><path style="opacity:0.012" fill="#646464" d="M 50.5,100.5 C 50.5,102.833 50.5,105.167 50.5,107.5C 49.1667,105.167 49.1667,102.833 50.5,100.5 Z"/></g>
<g><path style="opacity:1" fill="#73552e" d="M 104.5,100.5 C 105.5,101.167 106.5,101.833 107.5,102.5C 108.657,105.307 108.657,107.974 107.5,110.5C 107.25,108.326 106.25,106.659 104.5,105.5C 104.297,103.956 103.63,102.622 102.5,101.5C 102.957,100.702 103.624,100.369 104.5,100.5 Z"/></g>
<g><path style="opacity:1" fill="#efefee" d="M 91.5,104.5 C 96.1585,104.015 97.4919,105.848 95.5,110C 91.2662,110.267 89.9329,108.434 91.5,104.5 Z"/></g>
<g><path style="opacity:1" fill="#712d60" d="M 124.5,107.5 C 125.999,108.494 127.666,108.494 129.5,107.5C 130.873,107.343 132.207,107.51 133.5,108C 132.956,108.717 132.289,109.217 131.5,109.5C 128.735,109.396 125.735,109.229 122.5,109C 123.044,108.283 123.711,107.783 124.5,107.5 Z"/></g>
<g><path style="opacity:0.012" fill="#606060" d="M 50.5,107.5 C 50.8333,107.5 51.1667,107.5 51.5,107.5C 51.5,109.5 51.5,111.5 51.5,113.5C 50.5386,111.735 50.2053,109.735 50.5,107.5 Z"/></g>
<g><path style="opacity:1" fill="#4b453d" d="M 88.5,95.5 C 88.1412,97.371 87.1412,98.871 85.5,100C 85.7284,100.399 86.0618,100.565 86.5,100.5C 80.4119,114.436 85.0786,121.102 100.5,120.5C 93.1332,123.655 87.2999,121.655 83,114.5C 82.6667,111.5 82.3333,108.5 82,105.5C 80.3029,108.02 78.4695,110.353 76.5,112.5C 77.1283,109.91 78.295,107.577 80,105.5C 82.6142,101.91 85.4475,98.5762 88.5,95.5 Z"/></g>
<g><path style="opacity:1" fill="#343231" d="M 157.5,95.5 C 158.5,96.1667 159.5,96.8333 160.5,97.5C 163.049,103.599 165.882,109.599 169,115.5C 169.579,111.797 169.412,108.131 168.5,104.5C 168.326,102.139 167.993,99.8056 167.5,97.5C 168.791,97.7373 169.791,97.404 170.5,96.5C 172.957,99.7512 174.624,103.418 175.5,107.5C 173.8,110.068 172.466,112.901 171.5,116C 171.667,116.833 171.833,117.667 172,118.5C 173.039,117.29 174.206,116.29 175.5,115.5C 174.083,117.844 172.75,120.177 171.5,122.5C 171.158,123.338 170.492,123.672 169.5,123.5C 169.5,122.833 169.167,122.5 168.5,122.5C 169.038,120.883 169.371,119.216 169.5,117.5C 157.912,120.257 152.245,115.59 152.5,103.5C 151.522,103.977 150.689,104.643 150,105.5C 149.612,108.849 149.779,112.183 150.5,115.5C 149.625,113.432 148.459,111.432 147,109.5C 146.623,110.942 145.79,111.942 144.5,112.5C 146.355,106.644 150.021,102.311 155.5,99.5C 158.431,99.0897 159.097,97.7564 157.5,95.5 Z"/></g>
<g><path style="opacity:1" fill="#dfdfdf" d="M 158.5,104.5 C 161.776,105.122 163.109,107.122 162.5,110.5C 160.833,110.5 159.167,110.5 157.5,110.5C 157.325,108.379 157.659,106.379 158.5,104.5 Z"/></g>
<g><path style="opacity:1" fill="#c765b8" d="M 168.5,104.5 C 169.412,108.131 169.579,111.797 169,115.5C 165.882,109.599 163.049,103.599 160.5,97.5C 161.552,95.744 163.219,95.0773 165.5,95.5C 165.928,98.7846 166.928,101.785 168.5,104.5 Z"/></g>
<g><path style="opacity:1" fill="#4a3845" d="M 113.5,111.5 C 115.306,113.089 116.639,115.089 117.5,117.5C 117.376,118.107 117.043,118.44 116.5,118.5C 115.227,116.287 114.227,113.954 113.5,111.5 Z"/></g>
<g><path style="opacity:1" fill="#826037" d="M 175.5,107.5 C 176.232,110.266 176.232,112.932 175.5,115.5C 174.206,116.29 173.039,117.29 172,118.5C 171.833,117.667 171.667,116.833 171.5,116C 172.466,112.901 173.8,110.068 175.5,107.5 Z"/></g>
<g><path style="opacity:0.012" fill="#676767" d="M 51.5,113.5 C 51.8333,113.5 52.1667,113.5 52.5,113.5C 52.5,115.167 52.5,116.833 52.5,118.5C 51.5489,117.081 51.2155,115.415 51.5,113.5 Z"/></g>
<g><path style="opacity:1" fill="#4e93a1" d="M 112.5,135.5 C 114.066,132.588 116.066,129.921 118.5,127.5C 118.192,126.692 117.692,126.025 117,125.5C 115.871,127.141 114.371,128.141 112.5,128.5C 118.527,121.806 124.86,115.473 131.5,109.5C 132.289,109.217 132.956,108.717 133.5,108C 132.207,107.51 130.873,107.343 129.5,107.5C 132.623,106.213 135.957,105.213 139.5,104.5C 140.932,104.733 141.432,105.4 141,106.5C 131.271,116.062 121.771,125.728 112.5,135.5 Z"/></g>
<g><path style="opacity:0.008" fill="#585858" d="M 210.5,112.5 C 210.833,112.5 211.167,112.5 211.5,112.5C 211.768,114.099 211.434,115.432 210.5,116.5C 210.5,115.167 210.5,113.833 210.5,112.5 Z"/></g>
<g><path style="opacity:1" fill="#eae8e9" d="M 100.5,120.5 C 101.922,120.291 103.255,119.791 104.5,119C 106.291,116.586 107.957,114.086 109.5,111.5C 110.865,110.193 112.198,110.193 113.5,111.5C 114.227,113.954 115.227,116.287 116.5,118.5C 112.407,120.045 108.407,121.879 104.5,124C 95.1546,126.612 86.4879,125.112 78.5,119.5C 78.1667,119.5 77.8333,119.5 77.5,119.5C 76.8333,118.167 75.8333,117.167 74.5,116.5C 75.6005,115.395 76.2671,114.062 76.5,112.5C 78.4695,110.353 80.3029,108.02 82,105.5C 82.3333,108.5 82.6667,111.5 83,114.5C 87.2999,121.655 93.1332,123.655 100.5,120.5 Z"/></g>
<g><path style="opacity:1" fill="#af792d" d="M 86.5,100.5 C 86.8333,100.5 87.1667,100.5 87.5,100.5C 88.4646,101.721 88.298,103.054 87,104.5C 85.4166,110.15 86.9166,114.65 91.5,118C 100.896,119.104 105.23,114.937 104.5,105.5C 106.25,106.659 107.25,108.326 107.5,110.5C 106.627,114.931 104.294,118.264 100.5,120.5C 85.0786,121.102 80.4119,114.436 86.5,100.5 Z"/></g>
<g><path style="opacity:0.012" fill="#494949" d="M 209.5,116.5 C 209.833,116.5 210.167,116.5 210.5,116.5C 210.737,117.791 210.404,118.791 209.5,119.5C 209.5,118.5 209.5,117.5 209.5,116.5 Z"/></g>
<g><path style="opacity:1" fill="#45c7e0" d="M 74.5,116.5 C 75.8333,117.167 76.8333,118.167 77.5,119.5C 76.1879,121.479 74.5212,123.145 72.5,124.5C 71.3691,122.926 71.2025,121.259 72,119.5C 73.045,118.627 73.8783,117.627 74.5,116.5 Z"/></g>
<g><path style="opacity:1" fill="#a4712b" d="M 168.5,122.5 C 168.167,122.5 167.833,122.5 167.5,122.5C 164.813,122.664 162.146,122.497 159.5,122C 157.114,120.807 154.78,119.64 152.5,118.5C 151.094,118.027 150.427,117.027 150.5,115.5C 149.779,112.183 149.612,108.849 150,105.5C 150.689,104.643 151.522,103.977 152.5,103.5C 152.245,115.59 157.912,120.257 169.5,117.5C 169.371,119.216 169.038,120.883 168.5,122.5 Z"/></g>
<g><path style="opacity:1" fill="#827e85" d="M 175.5,107.5 C 177.237,111.542 178.237,115.876 178.5,120.5C 176.167,121.167 173.833,121.833 171.5,122.5C 172.75,120.177 174.083,117.844 175.5,115.5C 176.232,112.932 176.232,110.266 175.5,107.5 Z"/></g>
<g><path style="opacity:0.012" fill="#6a6a6a" d="M 52.5,118.5 C 52.8333,118.5 53.1667,118.5 53.5,118.5C 53.5,119.833 53.5,121.167 53.5,122.5C 52.5655,121.432 52.2322,120.099 52.5,118.5 Z"/></g>
<g><path style="opacity:1" fill="#595553" d="M 107.5,102.5 C 110.277,104.951 112.277,107.951 113.5,111.5C 112.198,110.193 110.865,110.193 109.5,111.5C 107.957,114.086 106.291,116.586 104.5,119C 103.255,119.791 101.922,120.291 100.5,120.5C 104.294,118.264 106.627,114.931 107.5,110.5C 108.657,107.974 108.657,105.307 107.5,102.5 Z"/></g>
<g><path style="opacity:0.012" fill="#2c2c2c" d="M 208.5,119.5 C 208.833,119.5 209.167,119.5 209.5,119.5C 209.737,120.791 209.404,121.791 208.5,122.5C 208.5,121.5 208.5,120.5 208.5,119.5 Z"/></g>
<g><path style="opacity:1" fill="#565350" d="M 152.5,118.5 C 154.78,119.64 157.114,120.807 159.5,122C 162.146,122.497 164.813,122.664 167.5,122.5C 161.627,124.62 156.627,123.286 152.5,118.5 Z"/></g>
<g><path style="opacity:1" fill="#b89532" d="M 178.5,120.5 C 178.5,121.167 178.5,121.833 178.5,122.5C 178.334,130.84 178.5,139.173 179,147.5C 180.045,146.627 180.878,145.627 181.5,144.5C 182.167,142.5 182.833,140.5 183.5,138.5C 185.472,135.916 186.472,132.916 186.5,129.5C 186.5,129.167 186.5,128.833 186.5,128.5C 187.222,128.082 187.722,127.416 188,126.5C 188.667,129.833 188.667,133.167 188,136.5C 186.258,141.23 184.425,145.897 182.5,150.5C 179.591,153.981 176.925,157.648 174.5,161.5C 172.167,163.167 170.167,165.167 168.5,167.5C 167.391,167.557 166.391,167.89 165.5,168.5C 172.723,156.512 175.223,143.512 173,129.5C 172.78,127.027 171.614,125.36 169.5,124.5C 169.5,124.167 169.5,123.833 169.5,123.5C 170.492,123.672 171.158,123.338 171.5,122.5C 173.833,121.833 176.167,121.167 178.5,120.5 Z"/></g>
<g><path style="opacity:1" fill="#46636e" d="M 76.5,112.5 C 76.2671,114.062 75.6005,115.395 74.5,116.5C 73.8783,117.627 73.045,118.627 72,119.5C 71.2025,121.259 71.3691,122.926 72.5,124.5C 74.5212,123.145 76.1879,121.479 77.5,119.5C 77.8333,119.5 78.1667,119.5 78.5,119.5C 77.5806,122.089 75.914,124.089 73.5,125.5C 72.8333,125.5 72.5,125.833 72.5,126.5C 70.6824,128.078 69.6824,127.578 69.5,125C 69.7728,123.467 70.1062,121.967 70.5,120.5C 70.5569,119.391 70.8902,118.391 71.5,117.5C 72.9387,115.64 74.6053,113.973 76.5,112.5 Z"/></g>
<g><path style="opacity:1" fill="#f2f0ea" d="M 150.5,115.5 C 150.427,117.027 151.094,118.027 152.5,118.5C 156.627,123.286 161.627,124.62 167.5,122.5C 167.833,122.5 168.167,122.5 168.5,122.5C 169.167,122.5 169.5,122.833 169.5,123.5C 169.5,123.833 169.5,124.167 169.5,124.5C 159.784,127.117 150.95,125.451 143,119.5C 142.174,116.788 142.674,114.455 144.5,112.5C 145.79,111.942 146.623,110.942 147,109.5C 148.459,111.432 149.625,113.432 150.5,115.5 Z"/></g>
<g><path style="opacity:0.004" fill="#a2a2a2" d="M 207.5,122.5 C 207.833,122.5 208.167,122.5 208.5,122.5C 208.672,123.492 208.338,124.158 207.5,124.5C 207.5,123.833 207.5,123.167 207.5,122.5 Z"/></g>
<g><path style="opacity:0.004" fill="#b6b6b6" d="M 53.5,122.5 C 53.8333,122.5 54.1667,122.5 54.5,122.5C 54.1667,129.167 53.8333,129.167 53.5,122.5 Z"/></g>
<g><path style="opacity:0.004" fill="#cba7a1" d="M 206.5,124.5 C 206.833,124.5 207.167,124.5 207.5,124.5C 207.672,125.492 207.338,126.158 206.5,126.5C 206.5,125.833 206.5,125.167 206.5,124.5 Z"/></g>
<g><path style="opacity:1" fill="#6b285b" d="M 73.5,125.5 C 76.9619,126.482 80.6286,126.815 84.5,126.5C 84.8587,130.131 83.5254,132.798 80.5,134.5C 81.086,132.16 82.086,129.993 83.5,128C 81.8659,127.506 80.1992,127.34 78.5,127.5C 76.2646,127.795 74.2646,127.461 72.5,126.5C 72.5,125.833 72.8333,125.5 73.5,125.5 Z"/></g>
<g><path style="opacity:0.004" fill="#1f1f1f" d="M 205.5,126.5 C 205.833,126.5 206.167,126.5 206.5,126.5C 206.672,127.492 206.338,128.158 205.5,128.5C 205.5,127.833 205.5,127.167 205.5,126.5 Z"/></g>
<g><path style="opacity:1" fill="#3f3633" d="M 69.5,99.5 C 69.6262,105.193 69.2929,110.86 68.5,116.5C 68.5854,118.333 69.2521,119.666 70.5,120.5C 70.1062,121.967 69.7728,123.467 69.5,125C 69.6824,127.578 70.6824,128.078 72.5,126.5C 74.2646,127.461 76.2646,127.795 78.5,127.5C 77.0813,128.451 75.4147,128.784 73.5,128.5C 72.448,128.351 71.448,128.517 70.5,129C 72.3397,133.687 73.673,138.52 74.5,143.5C 67.5779,129.387 65.9113,114.72 69.5,99.5 Z"/></g>
<g><path style="opacity:1" fill="#f3c52c" d="M 78.5,127.5 C 80.1992,127.34 81.8659,127.506 83.5,128C 82.086,129.993 81.086,132.16 80.5,134.5C 79.3263,135.514 78.6596,136.847 78.5,138.5C 77.8826,138.611 77.3826,138.944 77,139.5C 75.7262,135.846 74.5596,132.18 73.5,128.5C 75.4147,128.784 77.0813,128.451 78.5,127.5 Z"/></g>
<g><path style="opacity:0.008" fill="#7e7f7e" d="M 204.5,128.5 C 204.833,128.5 205.167,128.5 205.5,128.5C 205.315,129.17 204.981,129.17 204.5,128.5 Z"/></g>
<g><path style="opacity:1" fill="#b08f2f" d="M 73.5,128.5 C 74.5596,132.18 75.7262,135.846 77,139.5C 77.3826,138.944 77.8826,138.611 78.5,138.5C 78.5,139.167 78.5,139.833 78.5,140.5C 77.5987,141.29 76.9321,142.29 76.5,143.5C 75.8333,143.5 75.1667,143.5 74.5,143.5C 73.673,138.52 72.3397,133.687 70.5,129C 71.448,128.517 72.448,128.351 73.5,128.5 Z"/></g>
<g><path style="opacity:0.008" fill="#535353" d="M 203.5,129.5 C 203.833,129.5 204.167,129.5 204.5,129.5C 204.672,130.492 204.338,131.158 203.5,131.5C 203.5,130.833 203.5,130.167 203.5,129.5 Z"/></g>
<g><path style="opacity:1" fill="#47b9d1" d="M 112.5,135.5 C 111.833,136.5 111.167,137.5 110.5,138.5C 108.251,139.08 106.585,140.413 105.5,142.5C 104.751,141.469 104.085,140.302 103.5,139C 107.107,135.902 110.107,132.402 112.5,128.5C 114.371,128.141 115.871,127.141 117,125.5C 117.692,126.025 118.192,126.692 118.5,127.5C 116.066,129.921 114.066,132.588 112.5,135.5 Z"/></g>
<g><path style="opacity:1" fill="#493d38" d="M 186.5,129.5 C 186.472,132.916 185.472,135.916 183.5,138.5C 183.928,135.215 184.928,132.215 186.5,129.5 Z"/></g>
<g><path style="opacity:0.004" fill="#a31ea2" d="M 202.5,131.5 C 202.833,131.5 203.167,131.5 203.5,131.5C 203.672,132.492 203.338,133.158 202.5,133.5C 202.5,132.833 202.5,132.167 202.5,131.5 Z"/></g>
<g><path style="opacity:0.008" fill="#7e7f7e" d="M 201.5,133.5 C 201.833,133.5 202.167,133.5 202.5,133.5C 202.315,134.17 201.981,134.17 201.5,133.5 Z"/></g>
<g><path style="opacity:1" fill="#744076" d="M 63.5,139.5 C 64.3382,139.842 64.6716,140.508 64.5,141.5C 67.429,150.025 71.429,158.025 76.5,165.5C 73.5418,168.324 70.5418,171.158 67.5,174C 67.7284,174.399 68.0618,174.565 68.5,174.5C 68.1667,175.5 67.5,176.167 66.5,176.5C 66.44,175.957 66.1067,175.624 65.5,175.5C 64.0186,176.48 62.6853,177.647 61.5,179C 55.5539,180.658 49.5539,181.658 43.5,182C 48.0343,177.801 52.201,173.301 56,168.5C 59.0202,164.161 59.8535,159.495 58.5,154.5C 50.9246,158.75 42.9246,161.25 34.5,162C 44.6728,153.172 52.5062,142.672 58,130.5C 59.3571,133.898 61.1904,136.898 63.5,139.5 Z"/></g>
<g><path style="opacity:0.004" fill="#191919" d="M 200.5,134.5 C 200.833,134.5 201.167,134.5 201.5,134.5C 201.672,135.492 201.338,136.158 200.5,136.5C 200.5,135.833 200.5,135.167 200.5,134.5 Z"/></g>
<g><path style="opacity:0.008" fill="#7e7f7e" d="M 199.5,136.5 C 199.833,136.5 200.167,136.5 200.5,136.5C 200.315,137.17 199.981,137.17 199.5,136.5 Z"/></g>
<g><path style="opacity:1" fill="#53492d" d="M 178.5,122.5 C 178.848,130.057 179.848,137.39 181.5,144.5C 180.878,145.627 180.045,146.627 179,147.5C 178.5,139.173 178.334,130.84 178.5,122.5 Z"/></g>
<g><path style="opacity:1" fill="#554a33" d="M 110.5,138.5 C 109.167,140.5 107.5,142.167 105.5,143.5C 105.5,143.167 105.5,142.833 105.5,142.5C 106.585,140.413 108.251,139.08 110.5,138.5 Z"/></g>
<g><path style="opacity:1" fill="#5d512e" d="M 120.5,142.5 C 120.56,141.957 120.893,141.624 121.5,141.5C 122.981,142.48 124.315,143.647 125.5,145C 128.54,145.32 131.54,145.32 134.5,145C 129.19,147.542 124.524,146.708 120.5,142.5 Z"/></g>
<g><path style="opacity:1" fill="#478897" d="M 112.5,128.5 C 110.107,132.402 107.107,135.902 103.5,139C 104.085,140.302 104.751,141.469 105.5,142.5C 105.5,142.833 105.5,143.167 105.5,143.5C 105.167,144.167 104.833,144.833 104.5,145.5C 104.167,145.5 103.833,145.5 103.5,145.5C 102.796,143.656 101.463,143.156 99.5,144C 96.3347,146.335 93.3347,148.835 90.5,151.5C 97.1102,143.221 104.444,135.555 112.5,128.5 Z"/></g>
<g><path style="opacity:1" fill="#44bfd8" d="M 103.5,145.5 C 101.086,146.911 99.4194,148.911 98.5,151.5C 94.5201,155.145 90.5201,158.811 86.5,162.5C 85.1667,161.833 84.1667,160.833 83.5,159.5C 85.5311,157.69 87.1978,155.69 88.5,153.5C 88.8333,152.5 89.5,151.833 90.5,151.5C 93.3347,148.835 96.3347,146.335 99.5,144C 101.463,143.156 102.796,143.656 103.5,145.5 Z"/></g>
<g><path style="opacity:1" fill="#744076" d="M 189.5,176.5 C 187.973,176.573 186.973,175.906 186.5,174.5C 186.047,173.542 185.381,172.708 184.5,172C 180.34,170.088 176.34,167.921 172.5,165.5C 173.63,164.378 174.297,163.044 174.5,161.5C 178.387,158.728 181.054,155.061 182.5,150.5C 183.376,150.369 184.043,150.702 184.5,151.5C 183.674,152.451 183.508,153.451 184,154.5C 188.126,150.22 191.626,145.554 194.5,140.5C 195.117,140.389 195.617,140.056 196,139.5C 198.854,151.874 204.354,162.874 212.5,172.5C 212.167,172.833 211.833,173.167 211.5,173.5C 210.205,172.902 208.872,172.402 207.5,172C 202.715,168.941 197.715,166.441 192.5,164.5C 192.338,166.527 192.505,168.527 193,170.5C 194.639,173.742 195.639,177.076 196,180.5C 194.028,178.768 191.861,177.435 189.5,176.5 Z M 194.5,167.5 C 195.239,167.369 195.906,167.536 196.5,168C 195.663,169.011 195.33,170.178 195.5,171.5C 194.566,170.432 194.232,169.099 194.5,167.5 Z"/></g>
<g><path style="opacity:1" fill="#432f3d" d="M 74.5,143.5 C 75.1667,143.5 75.8333,143.5 76.5,143.5C 76.3893,144.117 76.056,144.617 75.5,145C 77.7223,148.168 79.0556,151.668 79.5,155.5C 77.315,151.787 75.6483,147.787 74.5,143.5 Z"/></g>
<g><path style="opacity:1" fill="#4a3846" d="M 183.5,86.5 C 184.773,88.7128 185.773,91.0462 186.5,93.5C 187.749,97.7328 188.582,102.066 189,106.5C 189.903,120.314 189.57,133.981 188,147.5C 189.719,144.712 191.885,142.379 194.5,140.5C 191.626,145.554 188.126,150.22 184,154.5C 183.508,153.451 183.674,152.451 184.5,151.5C 184.043,150.702 183.376,150.369 182.5,150.5C 184.425,145.897 186.258,141.23 188,136.5C 188.667,133.167 188.667,129.833 188,126.5C 187.722,127.416 187.222,128.082 186.5,128.5C 186.5,128.167 186.5,127.833 186.5,127.5C 187.392,120.209 187.726,112.876 187.5,105.5C 186.769,99.243 185.102,93.243 182.5,87.5C 182.624,86.8933 182.957,86.56 183.5,86.5 Z"/></g>
<g><path style="opacity:1" fill="#871f73" d="M 78.5,140.5 C 80.2167,145.602 82.2167,150.602 84.5,155.5C 82.9991,157.957 81.3324,157.957 79.5,155.5C 79.0556,151.668 77.7223,148.168 75.5,145C 76.056,144.617 76.3893,144.117 76.5,143.5C 76.9321,142.29 77.5987,141.29 78.5,140.5 Z"/></g>
<g><path style="opacity:1" fill="#514935" d="M 103.5,145.5 C 103.833,145.5 104.167,145.5 104.5,145.5C 102.833,147.833 100.833,149.833 98.5,151.5C 99.4194,148.911 101.086,146.911 103.5,145.5 Z"/></g>
<g><path style="opacity:1" fill="#3d3335" d="M 182.5,150.5 C 181.054,155.061 178.387,158.728 174.5,161.5C 176.925,157.648 179.591,153.981 182.5,150.5 Z"/></g>
<g><path style="opacity:1" fill="#973325" d="M 119.5,157.5 C 124.352,158.451 129.185,158.451 134,157.5C 138.087,157.814 141.92,158.814 145.5,160.5C 133.718,171.12 122.051,171.12 110.5,160.5C 113.576,159.366 116.576,158.366 119.5,157.5 Z"/></g>
<g><path style="opacity:0.004" fill="#c2c2c2" d="M 51.5,160.5 C 52.1667,160.5 52.8333,160.5 53.5,160.5C 52.8333,161.833 52.1667,161.833 51.5,160.5 Z"/></g>
<g><path style="opacity:0.008" fill="#1f1f1f" d="M 30.5,161.5 C 31.525,161.897 31.6917,162.563 31,163.5C 30.5357,162.906 30.369,162.239 30.5,161.5 Z"/></g>
<g><path style="opacity:0.004" fill="#000000" d="M 33.5,164.5 C 32.8333,165.167 32.8333,165.167 33.5,164.5 Z"/></g>
<g><path style="opacity:0.004" fill="#8d8d8d" d="M 42.5,164.5 C 41.0536,165.613 39.3869,165.78 37.5,165C 39.1341,164.506 40.8008,164.34 42.5,164.5 Z"/></g>
<g><path style="opacity:0.008" fill="#fefffe" d="M 34.5,165.5 C 35.8333,166.167 35.8333,166.167 34.5,165.5 Z"/></g>
<g><path style="opacity:1" fill="#3f3540" d="M 64.5,141.5 C 70.7421,153.656 77.7421,165.323 85.5,176.5C 84.5178,175.859 83.5178,175.193 82.5,174.5C 81.5832,175.127 80.5832,175.461 79.5,175.5C 81.836,172.372 81.1693,169.705 77.5,167.5C 74.2889,169.6 71.2889,171.934 68.5,174.5C 68.0618,174.565 67.7284,174.399 67.5,174C 70.5418,171.158 73.5418,168.324 76.5,165.5C 71.429,158.025 67.429,150.025 64.5,141.5 Z"/></g>
<g><path style="opacity:1" fill="#8c4f8c" d="M 88.5,165.5 C 89.1667,166.167 89.8333,166.833 90.5,167.5C 87.0738,171.667 85.0738,170.833 84.5,165C 84.8333,164.5 85.1667,164 85.5,163.5C 86.5178,164.193 87.5178,164.859 88.5,165.5 Z"/></g>
<g><path style="opacity:1" fill="#995499" d="M 79.5,175.5 C 74.5219,177.991 69.8553,180.991 65.5,184.5C 63.3926,183.532 61.0593,183.198 58.5,183.5C 61.1413,181.196 63.808,178.862 66.5,176.5C 67.5,176.167 68.1667,175.5 68.5,174.5C 71.2889,171.934 74.2889,169.6 77.5,167.5C 81.1693,169.705 81.836,172.372 79.5,175.5 Z"/></g>
<g><path style="opacity:1" fill="#373134" d="M 98.5,151.5 C 96.2369,155.103 93.5703,158.436 90.5,161.5C 88.8958,162.287 88.2291,163.62 88.5,165.5C 87.5178,164.859 86.5178,164.193 85.5,163.5C 85.1667,164 84.8333,164.5 84.5,165C 85.0738,170.833 87.0738,171.667 90.5,167.5C 92.2303,168.026 93.5637,169.026 94.5,170.5C 91.6342,169.091 89.3009,169.757 87.5,172.5C 88.7878,174.739 89.7878,177.072 90.5,179.5C 86.7061,174.245 83.7061,168.579 81.5,162.5C 80.8333,160.167 80.1667,157.833 79.5,155.5C 81.3324,157.957 82.9991,157.957 84.5,155.5C 86.0618,155.267 87.3951,154.6 88.5,153.5C 87.1978,155.69 85.5311,157.69 83.5,159.5C 84.1667,160.833 85.1667,161.833 86.5,162.5C 90.5201,158.811 94.5201,155.145 98.5,151.5 Z"/></g>
<g><path style="opacity:1" fill="#955392" d="M 179.5,171.5 C 177.273,173.229 176.273,175.562 176.5,178.5C 175.508,178.672 174.842,178.338 174.5,177.5C 171.753,174.793 168.42,173.127 164.5,172.5C 164.5,171.833 164.5,171.167 164.5,170.5C 164.833,169.833 165.167,169.167 165.5,168.5C 166.391,167.89 167.391,167.557 168.5,167.5C 172.52,167.321 176.187,168.654 179.5,171.5 Z"/></g>
<g><path style="opacity:1" fill="#3c8fa6" d="M 94.5,170.5 C 99.6737,173.252 104.674,176.252 109.5,179.5C 108.761,179.369 108.094,179.536 107.5,180C 108.835,184.508 108.669,189.008 107,193.5C 105.138,195.029 103.638,196.863 102.5,199C 102.899,200.981 103.899,202.481 105.5,203.5C 107.833,208.167 110.167,212.833 112.5,217.5C 114.154,220.54 113.654,223.207 111,225.5C 109.955,224.627 109.122,223.627 108.5,222.5C 103.023,211.068 95.6899,200.901 86.5,192C 80.4767,189.104 74.31,186.604 68,184.5C 67.1841,185.823 66.0174,186.489 64.5,186.5C 64.8333,185.833 65.1667,185.167 65.5,184.5C 69.8553,180.991 74.5219,177.991 79.5,175.5C 80.5832,175.461 81.5832,175.127 82.5,174.5C 83.5178,175.193 84.5178,175.859 85.5,176.5C 86.9063,176.973 87.573,177.973 87.5,179.5C 88.7341,182.407 90.7341,184.741 93.5,186.5C 93.8333,186.167 94.1667,185.833 94.5,185.5C 93.1433,183.435 91.81,181.435 90.5,179.5C 89.7878,177.072 88.7878,174.739 87.5,172.5C 89.3009,169.757 91.6342,169.091 94.5,170.5 Z"/></g>
<g><path style="opacity:1" fill="#453445" d="M 174.5,161.5 C 174.297,163.044 173.63,164.378 172.5,165.5C 176.34,167.921 180.34,170.088 184.5,172C 185.381,172.708 186.047,173.542 186.5,174.5C 184.313,173.242 181.98,172.242 179.5,171.5C 176.187,168.654 172.52,167.321 168.5,167.5C 170.167,165.167 172.167,163.167 174.5,161.5 Z"/></g>
<g><path style="opacity:0.006" fill="#000000" d="M 215.5,172.5 C 215.167,172.5 214.833,172.5 214.5,172.5C 214.833,169.833 215.167,169.833 215.5,172.5 Z"/></g>
<g><path style="opacity:1" fill="#b79532" d="M 90.5,161.5 C 98.0529,168.091 105.72,174.424 113.5,180.5C 112.167,180.167 110.833,179.833 109.5,179.5C 104.674,176.252 99.6737,173.252 94.5,170.5C 93.5637,169.026 92.2303,168.026 90.5,167.5C 89.8333,166.833 89.1667,166.167 88.5,165.5C 88.2291,163.62 88.8958,162.287 90.5,161.5 Z"/></g>
<g><path style="opacity:1" fill="#3c8fa6" d="M 164.5,170.5 C 164.5,171.167 164.5,171.833 164.5,172.5C 167.167,174.167 169.833,175.833 172.5,177.5C 170.777,179.253 169.277,181.253 168,183.5C 163.457,194.293 158.624,204.959 153.5,215.5C 153.624,216.107 153.957,216.44 154.5,216.5C 154.167,217.167 153.833,217.833 153.5,218.5C 150.269,220.22 147.436,222.553 145,225.5C 143.311,223.68 143.145,221.68 144.5,219.5C 147.642,213.222 151.309,207.222 155.5,201.5C 152.147,197.794 150.147,193.461 149.5,188.5C 149.183,185.428 149.516,182.428 150.5,179.5C 153.568,178.309 156.235,176.642 158.5,174.5C 160.147,172.674 162.147,171.34 164.5,170.5 Z"/></g>
<g><path style="opacity:1" fill="#3b3b43" d="M 164.5,172.5 C 168.42,173.127 171.753,174.793 174.5,177.5C 173.833,177.5 173.167,177.5 172.5,177.5C 169.833,175.833 167.167,174.167 164.5,172.5 Z"/></g>
<g><path style="opacity:0.008" fill="#707070" d="M 215.5,172.5 C 216.525,172.897 216.692,173.563 216,174.5C 215.536,173.906 215.369,173.239 215.5,172.5 Z"/></g>
<g><path style="opacity:0.012" fill="#898989" d="M 207.5,174.5 C 207.103,175.525 206.437,175.692 205.5,175C 206.094,174.536 206.761,174.369 207.5,174.5 Z"/></g>
<g><path style="opacity:0.016" fill="#353535" d="M 208.5,176.5 C 209.251,175.427 210.251,175.26 211.5,176C 210.552,176.483 209.552,176.649 208.5,176.5 Z"/></g>
<g><path style="opacity:0.004" fill="#000000" d="M 213.5,175.5 C 214.833,176.167 214.833,176.167 213.5,175.5 Z"/></g>
<g><path style="opacity:1" fill="#45c8e2" d="M 172.5,177.5 C 173.167,177.5 173.833,177.5 174.5,177.5C 174.842,178.338 175.508,178.672 176.5,178.5C 178.975,181.241 181.975,183.241 185.5,184.5C 187.975,187.241 190.975,189.241 194.5,190.5C 195.96,192.463 197.627,194.296 199.5,196C 191.542,198.371 183.875,201.204 176.5,204.5C 173.088,205.042 170.088,206.375 167.5,208.5C 162.693,210.403 158.36,213.07 154.5,216.5C 153.957,216.44 153.624,216.107 153.5,215.5C 158.624,204.959 163.457,194.293 168,183.5C 169.277,181.253 170.777,179.253 172.5,177.5 Z"/></g>
<g><path style="opacity:0.008" fill="#7e7f7e" d="M 37.5,182.5 C 38.525,182.897 38.6917,183.563 38,184.5C 37.5357,183.906 37.369,183.239 37.5,182.5 Z"/></g>
<g><path style="opacity:1" fill="#b89531" d="M 109.5,179.5 C 114.814,183.77 120.98,185.77 128,185.5C 135.026,185.269 141.693,183.602 148,180.5C 148.183,183.365 148.683,186.031 149.5,188.5C 150.147,193.461 152.147,197.794 155.5,201.5C 151.309,207.222 147.642,213.222 144.5,219.5C 138.433,227.951 133.1,236.951 128.5,246.5C 127.575,245.643 126.908,244.643 126.5,243.5C 131.228,231.378 137.061,219.711 144,208.5C 144.626,202.805 144.459,197.138 143.5,191.5C 133.046,195.749 123.046,194.749 113.5,188.5C 111.579,193.957 108.912,198.957 105.5,203.5C 103.899,202.481 102.899,200.981 102.5,199C 103.638,196.863 105.138,195.029 107,193.5C 108.669,189.008 108.835,184.508 107.5,180C 108.094,179.536 108.761,179.369 109.5,179.5 Z"/></g>
<g><path style="opacity:1" fill="#4c442f" d="M 158.5,174.5 C 156.235,176.642 153.568,178.309 150.5,179.5C 149.516,182.428 149.183,185.428 149.5,188.5C 148.683,186.031 148.183,183.365 148,180.5C 141.693,183.602 135.026,185.269 128,185.5C 120.98,185.77 114.814,183.77 109.5,179.5C 110.833,179.833 112.167,180.167 113.5,180.5C 119.334,183.765 125.667,184.932 132.5,184C 141.508,181.72 150.175,178.553 158.5,174.5 Z"/></g>
<g><path style="opacity:0.02" fill="#737174" d="M 55.5,183.5 C 54.794,182.443 54.4607,182.776 54.5,184.5C 53.8333,184.5 53.5,184.833 53.5,185.5C 53.6716,186.492 53.3382,187.158 52.5,187.5C 52.1667,186.167 51.8333,186.167 51.5,187.5C 50.8444,186.722 50.0111,186.056 49,185.5C 45.8792,186.536 42.7125,186.703 39.5,186C 41.8333,185.667 44.1667,185.333 46.5,185C 45.2068,184.51 43.8734,184.343 42.5,184.5C 43.9187,183.549 45.5853,183.216 47.5,183.5C 51.4723,184.423 51.8056,184.423 48.5,183.5C 49.5676,182.566 50.901,182.232 52.5,182.5C 52.8333,183.833 53.1667,183.833 53.5,182.5C 54.6009,181.402 55.9343,181.235 57.5,182C 56.9558,182.717 56.2891,183.217 55.5,183.5 Z"/></g>
<g><path style="opacity:1" fill="#39383f" d="M 87.5,179.5 C 88.4584,179.953 89.2917,180.619 90,181.5C 90.4643,180.906 90.631,180.239 90.5,179.5C 91.81,181.435 93.1433,183.435 94.5,185.5C 94.1667,185.833 93.8333,186.167 93.5,186.5C 90.7341,184.741 88.7341,182.407 87.5,179.5 Z"/></g>
<g><path style="opacity:1" fill="#464651" d="M 185.5,184.5 C 189.049,185.723 192.049,187.723 194.5,190.5C 190.975,189.241 187.975,187.241 185.5,184.5 Z"/></g>
<g><path style="opacity:1" fill="#47c3dc" d="M 108.5,222.5 C 107.609,221.89 106.609,221.557 105.5,221.5C 104.415,219.413 102.749,218.08 100.5,217.5C 95.6577,214.245 90.6577,211.245 85.5,208.5C 82.0864,205.46 78.0864,203.46 73.5,202.5C 66.6257,199.339 59.2924,197.505 51.5,197C 52.056,196.617 52.3893,196.117 52.5,195.5C 54.7488,194.92 56.4154,193.587 57.5,191.5C 59.2964,189.1 61.6298,187.433 64.5,186.5C 66.0174,186.489 67.1841,185.823 68,184.5C 74.31,186.604 80.4767,189.104 86.5,192C 95.6899,200.901 103.023,211.068 108.5,222.5 Z"/></g>
<g><path style="opacity:1" fill="#fcc92c" d="M 126.5,243.5 C 125.674,240.515 124.341,237.849 122.5,235.5C 120.177,228.847 116.844,222.847 112.5,217.5C 110.167,212.833 107.833,208.167 105.5,203.5C 108.912,198.957 111.579,193.957 113.5,188.5C 123.046,194.749 133.046,195.749 143.5,191.5C 144.459,197.138 144.626,202.805 144,208.5C 137.061,219.711 131.228,231.378 126.5,243.5 Z"/></g>
<g><path style="opacity:1" fill="#4d4251" d="M 194.5,190.5 C 197.946,191.612 199.946,193.945 200.5,197.5C 192.483,199.84 184.483,202.173 176.5,204.5C 183.875,201.204 191.542,198.371 199.5,196C 197.627,194.296 195.96,192.463 194.5,190.5 Z"/></g>
<g><path style="opacity:1" fill="#393d42" d="M 57.5,191.5 C 56.4154,193.587 54.7488,194.92 52.5,195.5C 53.5846,193.413 55.2512,192.08 57.5,191.5 Z"/></g>
<g><path style="opacity:0.016" fill="#383838" d="M 41.5,197.5 C 40.8333,197.5 40.5,197.833 40.5,198.5C 39.2875,197.503 39.4542,196.503 41,195.5C 41.4643,196.094 41.631,196.761 41.5,197.5 Z"/></g>
<g><path style="opacity:0.012" fill="#653463" d="M 218.5,198.5 C 218.167,198.5 217.833,198.5 217.5,198.5C 217.833,195.833 218.167,195.833 218.5,198.5 Z"/></g>
<g><path style="opacity:0.012" fill="#545554" d="M 37.5,199.5 C 38.8333,200.167 38.8333,200.167 37.5,199.5 Z"/></g>
<g><path style="opacity:1" fill="#544a5b" d="M 52.5,195.5 C 52.3893,196.117 52.056,196.617 51.5,197C 59.2924,197.505 66.6257,199.339 73.5,202.5C 65.6844,200.243 57.6844,199.077 49.5,199C 48.9683,196.995 49.9683,195.829 52.5,195.5 Z"/></g>
<g><path style="opacity:0.012" fill="#494949" d="M 218.5,198.5 C 219.573,199.251 219.74,200.251 219,201.5C 218.517,200.552 218.351,199.552 218.5,198.5 Z"/></g>
<g><path style="opacity:0.004" fill="#000000" d="M 37.5,200.5 C 37.5,200.833 37.5,201.167 37.5,201.5C 36.8299,201.019 36.8299,200.685 37.5,200.5 Z"/></g>
<g><path style="opacity:1" fill="#cd6abd" d="M 179.5,171.5 C 181.98,172.242 184.313,173.242 186.5,174.5C 186.973,175.906 187.973,176.573 189.5,176.5C 198.565,183.388 207.231,190.888 215.5,199C 208.641,199.206 201.974,200.372 195.5,202.5C 192.341,203.331 189.341,204.331 186.5,205.5C 177.635,207.932 169.635,211.932 162.5,217.5C 160.596,217.738 159.262,218.738 158.5,220.5C 151.167,225.833 144.833,232.167 139.5,239.5C 137,242.494 135,245.827 133.5,249.5C 132.849,250.091 132.182,250.757 131.5,251.5C 130.702,251.043 130.369,250.376 130.5,249.5C 131.176,245.813 132.676,242.48 135,239.5C 141.174,232.468 147.341,225.468 153.5,218.5C 153.833,217.833 154.167,217.167 154.5,216.5C 158.36,213.07 162.693,210.403 167.5,208.5C 171.165,208.498 174.165,207.165 176.5,204.5C 184.483,202.173 192.483,199.84 200.5,197.5C 199.946,193.945 197.946,191.612 194.5,190.5C 192.049,187.723 189.049,185.723 185.5,184.5C 181.975,183.241 178.975,181.241 176.5,178.5C 176.273,175.562 177.273,173.229 179.5,171.5 Z"/></g>
<g><path style="opacity:0.004" fill="#000000" d="M 37.5,201.5 C 38.8333,202.167 38.8333,202.167 37.5,201.5 Z"/></g>
<g><path style="opacity:1" fill="#4a424e" d="M 73.5,202.5 C 78.0864,203.46 82.0864,205.46 85.5,208.5C 81.1822,207.008 77.1822,205.008 73.5,202.5 Z"/></g>
<g><path style="opacity:1" fill="#985497" d="M 195.5,202.5 C 198.945,202.806 202.611,202.806 206.5,202.5C 206.5,202.833 206.5,203.167 206.5,203.5C 194.922,206.789 184.255,211.956 174.5,219C 162.193,229.802 151.526,241.969 142.5,255.5C 133.167,255.5 123.833,255.5 114.5,255.5C 111.606,249.581 107.606,244.414 102.5,240C 86.5015,226.999 68.5015,217.666 48.5,212C 45.1508,211.612 41.8175,211.779 38.5,212.5C 50.007,209.333 61.6736,206.999 73.5,205.5C 75.7496,206.13 77.7496,207.13 79.5,208.5C 83.4921,210.83 87.4921,213.163 91.5,215.5C 94.5331,217.016 97.1997,219.016 99.5,221.5C 103.833,226.5 108.5,231.167 113.5,235.5C 118.076,240.987 122.409,246.653 126.5,252.5C 127.5,252.5 128.5,252.5 129.5,252.5C 129.5,251.5 129.5,250.5 129.5,249.5C 129.833,249.5 130.167,249.5 130.5,249.5C 130.369,250.376 130.702,251.043 131.5,251.5C 132.182,250.757 132.849,250.091 133.5,249.5C 136.502,246.839 138.502,243.505 139.5,239.5C 146.167,233.5 152.5,227.167 158.5,220.5C 159.262,218.738 160.596,217.738 162.5,217.5C 171.026,213.237 179.026,209.237 186.5,205.5C 189.341,204.331 192.341,203.331 195.5,202.5 Z"/></g>
<g><path style="opacity:1" fill="#d16ac0" d="M 206.5,203.5 C 213.697,206.93 220.697,210.597 227.5,214.5C 211.697,224.302 200.697,237.969 194.5,255.5C 177.167,255.5 159.833,255.5 142.5,255.5C 151.526,241.969 162.193,229.802 174.5,219C 184.255,211.956 194.922,206.789 206.5,203.5 Z"/></g>
<g><path style="opacity:0.016" fill="#3e3e3e" d="M 45.5,207.5 C 46.2506,206.427 47.2506,206.26 48.5,207C 47.552,207.483 46.552,207.649 45.5,207.5 Z"/></g>
<g><path style="opacity:1" fill="#6d4b6b" d="M 176.5,204.5 C 174.165,207.165 171.165,208.498 167.5,208.5C 170.088,206.375 173.088,205.042 176.5,204.5 Z"/></g>
<g><path style="opacity:0.016" fill="#3e3e3e" d="M 44.5,208.5 C 43.448,208.649 42.448,208.483 41.5,208C 42.7494,207.26 43.7494,207.427 44.5,208.5 Z"/></g>
<g><path style="opacity:0.016" fill="#5a5a5a" d="M 40.5,209.5 C 39.448,209.649 38.448,209.483 37.5,209C 38.7494,208.26 39.7494,208.427 40.5,209.5 Z"/></g>
<g><path style="opacity:0.012" fill="#909090" d="M 36.5,210.5 C 35.448,210.649 34.448,210.483 33.5,210C 34.7494,209.26 35.7494,209.427 36.5,210.5 Z"/></g>
<g><path style="opacity:1" fill="#473646" d="M 186.5,205.5 C 179.026,209.237 171.026,213.237 162.5,217.5C 169.635,211.932 177.635,207.932 186.5,205.5 Z"/></g>
<g><path style="opacity:1" fill="#4f394d" d="M 79.5,208.5 C 84.4501,209.305 88.4501,211.638 91.5,215.5C 87.4921,213.163 83.4921,210.83 79.5,208.5 Z"/></g>
<g><path style="opacity:1" fill="#d269c1" d="M 114.5,255.5 C 97.5,255.5 80.5,255.5 63.5,255.5C 62.1667,253.5 60.5,251.833 58.5,250.5C 57.5806,247.911 55.914,245.911 53.5,244.5C 47.1229,234.471 40.7895,224.471 34.5,214.5C 35.287,212.896 36.6203,212.229 38.5,212.5C 41.8175,211.779 45.1508,211.612 48.5,212C 68.5015,217.666 86.5015,226.999 102.5,240C 107.606,244.414 111.606,249.581 114.5,255.5 Z"/></g>
<g><path style="opacity:1" fill="#564641" d="M 187.5,218.5 C 187.672,217.508 187.338,216.842 186.5,216.5C 186.685,214.804 187.519,213.471 189,212.5C 189.738,214.881 189.238,216.881 187.5,218.5 Z"/></g>
<g><path style="opacity:1" fill="#414d56" d="M 100.5,217.5 C 102.749,218.08 104.415,219.413 105.5,221.5C 103.251,220.92 101.585,219.587 100.5,217.5 Z"/></g>
<g><path style="opacity:0.008" fill="#2b2b2b" d="M 236.5,218.5 C 236.369,217.761 236.536,217.094 237,216.5C 237.692,217.437 237.525,218.103 236.5,218.5 Z"/></g>
<g><path style="opacity:1" fill="#63612e" d="M 186.5,216.5 C 186.573,218.027 185.906,219.027 184.5,219.5C 184.427,217.973 185.094,216.973 186.5,216.5 Z"/></g>
<g><path style="opacity:0.008" fill="#000000" d="M 235.5,218.5 C 235.833,218.5 236.167,218.5 236.5,218.5C 236.315,219.17 235.981,219.17 235.5,218.5 Z"/></g>
<g><path style="opacity:0.016" fill="#3e3f3e" d="M 234.5,219.5 C 234.833,219.5 235.167,219.5 235.5,219.5C 235.315,220.17 234.981,220.17 234.5,219.5 Z"/></g>
<g><path style="opacity:0.02" fill="#323332" d="M 233.5,220.5 C 233.833,220.5 234.167,220.5 234.5,220.5C 234.315,221.17 233.981,221.17 233.5,220.5 Z"/></g>
<g><path style="opacity:1" fill="#b862ab" d="M 32.5,216.5 C 36.475,225.783 40.975,234.783 46,243.5C 50.7922,246.453 54.2922,250.453 56.5,255.5C 55.1667,255.5 53.8333,255.5 52.5,255.5C 47.0655,247.617 41.3988,239.95 35.5,232.5C 32.8906,227.534 30.2239,222.534 27.5,217.5C 28.9142,214.25 30.5809,213.916 32.5,216.5 Z"/></g>
<g><path style="opacity:1" fill="#585530" d="M 184.5,219.5 C 184.573,221.027 183.906,222.027 182.5,222.5C 182.427,220.973 183.094,219.973 184.5,219.5 Z"/></g>
<g><path style="opacity:0.02" fill="#656665" d="M 232.5,221.5 C 232.833,221.5 233.167,221.5 233.5,221.5C 233.315,222.17 232.981,222.17 232.5,221.5 Z"/></g>
<g><path style="opacity:0.008" fill="#535353" d="M 27.5,221.5 C 27.5,222.167 27.5,222.833 27.5,223.5C 26.1667,222.833 26.1667,222.167 27.5,221.5 Z"/></g>
<g><path style="opacity:1" fill="#447384" d="M 112.5,217.5 C 116.844,222.847 120.177,228.847 122.5,235.5C 123.258,241.016 125.591,245.683 129.5,249.5C 129.5,250.5 129.5,251.5 129.5,252.5C 128.5,252.5 127.5,252.5 126.5,252.5C 122.232,240.292 115.232,229.959 105.5,221.5C 106.609,221.557 107.609,221.89 108.5,222.5C 109.122,223.627 109.955,224.627 111,225.5C 113.654,223.207 114.154,220.54 112.5,217.5 Z"/></g>
<g><path style="opacity:0.008" fill="#535353" d="M 27.5,223.5 C 27.8333,223.5 28.1667,223.5 28.5,223.5C 28.5,224.167 28.5,224.833 28.5,225.5C 27.6618,225.158 27.3284,224.492 27.5,223.5 Z"/></g>
<g><path style="opacity:1" fill="#543b51" d="M 99.5,221.5 C 105.167,225.167 109.833,229.833 113.5,235.5C 108.5,231.167 103.833,226.5 99.5,221.5 Z"/></g>
<g><path style="opacity:1" fill="#6e4b5d" d="M 182.5,222.5 C 180.957,224.928 179.957,227.594 179.5,230.5C 181.5,230.833 183.5,231.167 185.5,231.5C 185.768,233.099 185.434,234.432 184.5,235.5C 184.5,234.5 184.5,233.5 184.5,232.5C 182.04,232.301 179.707,231.635 177.5,230.5C 177.804,226.863 179.471,224.197 182.5,222.5 Z"/></g>
<g><path style="opacity:0.008" fill="#550d01" d="M 28.5,225.5 C 28.8333,225.5 29.1667,225.5 29.5,225.5C 29.5,226.167 29.5,226.833 29.5,227.5C 28.6618,227.158 28.3284,226.492 28.5,225.5 Z"/></g>
<g><path style="opacity:1" fill="#bd62af" d="M 230.5,216.5 C 231.756,216.461 232.756,216.961 233.5,218C 221.087,227.568 211.087,239.068 203.5,252.5C 202.596,253.209 202.263,254.209 202.5,255.5C 200.833,255.5 199.167,255.5 197.5,255.5C 200.193,250.775 202.36,245.775 204,240.5C 204.708,239.619 205.542,238.953 206.5,238.5C 208.587,237.415 209.92,235.749 210.5,233.5C 215.963,226.433 222.629,220.766 230.5,216.5 Z"/></g>
<g><path style="opacity:0.012" fill="#545554" d="M 226.5,226.5 C 226.833,226.5 227.167,226.5 227.5,226.5C 227.315,227.17 226.981,227.17 226.5,226.5 Z"/></g>
<g><path style="opacity:1" fill="#ece82a" d="M 186.5,216.5 C 187.338,216.842 187.672,217.508 187.5,218.5C 186.659,220.379 186.325,222.379 186.5,224.5C 185.427,225.251 185.26,226.251 186,227.5C 187.441,228.26 188.941,228.926 190.5,229.5C 191.298,229.957 191.631,230.624 191.5,231.5C 188.193,235.426 185.36,239.76 183,244.5C 182.31,245.738 181.81,245.738 181.5,244.5C 182.787,241.594 183.787,238.594 184.5,235.5C 185.434,234.432 185.768,233.099 185.5,231.5C 183.5,231.167 181.5,230.833 179.5,230.5C 179.957,227.594 180.957,224.928 182.5,222.5C 183.906,222.027 184.573,221.027 184.5,219.5C 185.906,219.027 186.573,218.027 186.5,216.5 Z"/></g>
<g><path style="opacity:1" fill="#564148" d="M 186.5,224.5 C 187.475,226.513 189.142,227.846 191.5,228.5C 192.776,229.614 192.776,230.614 191.5,231.5C 191.631,230.624 191.298,229.957 190.5,229.5C 188.941,228.926 187.441,228.26 186,227.5C 185.26,226.251 185.427,225.251 186.5,224.5 Z"/></g>
<g><path style="opacity:0.004" fill="#1f1f1f" d="M 29.5,227.5 C 29.8333,227.5 30.1667,227.5 30.5,227.5C 30.1667,230.167 29.8333,230.167 29.5,227.5 Z"/></g>
<g><path style="opacity:1" fill="#cd68bd" d="M 58.5,183.5 C 61.0593,183.198 63.3926,183.532 65.5,184.5C 65.1667,185.167 64.8333,185.833 64.5,186.5C 61.6298,187.433 59.2964,189.1 57.5,191.5C 55.2512,192.08 53.5846,193.413 52.5,195.5C 49.9683,195.829 48.9683,196.995 49.5,199C 57.6844,199.077 65.6844,200.243 73.5,202.5C 77.1822,205.008 81.1822,207.008 85.5,208.5C 90.6577,211.245 95.6577,214.245 100.5,217.5C 101.585,219.587 103.251,220.92 105.5,221.5C 115.232,229.959 122.232,240.292 126.5,252.5C 122.409,246.653 118.076,240.987 113.5,235.5C 109.833,229.833 105.167,225.167 99.5,221.5C 97.1997,219.016 94.5331,217.016 91.5,215.5C 88.4501,211.638 84.4501,209.305 79.5,208.5C 77.7496,207.13 75.7496,206.13 73.5,205.5C 63.2557,201.595 52.7557,200.262 42,201.5C 41.3333,200.833 41.3333,200.167 42,199.5C 47.4219,193.909 52.9219,188.575 58.5,183.5 Z"/></g>
<g><path style="opacity:1" fill="#2e2d2e" d="M 206.5,203.5 C 206.5,203.167 206.5,202.833 206.5,202.5C 207.167,202.5 207.833,202.5 208.5,202.5C 208.833,202.5 209.167,202.5 209.5,202.5C 209.5,203.167 209.833,203.5 210.5,203.5C 212.738,202.463 215.071,202.297 217.5,203C 216.366,204.016 216.699,204.683 218.5,205C 216.205,205.984 216.539,206.817 219.5,207.5C 220.768,206.572 222.101,206.405 223.5,207C 225.83,208.075 227.163,209.575 227.5,211.5C 230.139,210.863 232.472,211.697 234.5,214C 234.167,214.333 233.833,214.667 233.5,215C 234.823,215.816 235.489,216.983 235.5,218.5C 234.833,218.5 234.5,218.833 234.5,219.5C 233.833,219.5 233.5,219.833 233.5,220.5C 232.833,220.5 232.5,220.833 232.5,221.5C 231.167,221.833 231.167,222.167 232.5,222.5C 231.415,224.587 229.749,225.92 227.5,226.5C 227.167,225.167 226.833,225.167 226.5,226.5C 224.164,227.594 224.164,228.927 226.5,230.5C 229.982,238.14 232.315,246.14 233.5,254.5C 223.111,255.141 213.111,254.474 203.5,252.5C 211.087,239.068 221.087,227.568 233.5,218C 232.756,216.961 231.756,216.461 230.5,216.5C 230.027,215.094 229.027,214.427 227.5,214.5C 220.697,210.597 213.697,206.93 206.5,203.5 Z"/></g>
<g><path style="opacity:1" fill="#4da2b6" d="M 34.5,214.5 C 40.7895,224.471 47.1229,234.471 53.5,244.5C 54.4194,247.089 56.086,249.089 58.5,250.5C 59.075,252.411 60.075,254.078 61.5,255.5C 59.8333,255.5 58.1667,255.5 56.5,255.5C 54.2922,250.453 50.7922,246.453 46,243.5C 40.975,234.783 36.475,225.783 32.5,216.5C 32.5,215.167 33.1667,214.5 34.5,214.5 Z"/></g>
<g><path style="opacity:1" fill="#493749" d="M 158.5,220.5 C 152.5,227.167 146.167,233.5 139.5,239.5C 144.833,232.167 151.167,225.833 158.5,220.5 Z"/></g>
<g><path style="opacity:0.008" fill="#535353" d="M 32.5,230.5 C 32.631,231.239 32.4643,231.906 32,232.5C 31.3083,231.563 31.475,230.897 32.5,230.5 Z"/></g>
<g><path style="opacity:1" fill="#428fa3" d="M 227.5,214.5 C 229.027,214.427 230.027,215.094 230.5,216.5C 222.629,220.766 215.963,226.433 210.5,233.5C 208.413,234.585 207.08,236.251 206.5,238.5C 205.542,238.953 204.708,239.619 204,240.5C 202.36,245.775 200.193,250.775 197.5,255.5C 196.5,255.5 195.5,255.5 194.5,255.5C 200.697,237.969 211.697,224.302 227.5,214.5 Z"/></g>
<g><path style="opacity:0.998" fill="#313031" d="M 35.5,232.5 C 41.3988,239.95 47.0655,247.617 52.5,255.5C 41.8333,255.5 31.1667,255.5 20.5,255.5C 22.1667,252.167 23.8333,248.833 25.5,245.5C 26.1667,245.5 26.5,245.167 26.5,244.5C 28.686,240.802 31.3527,237.468 34.5,234.5C 35.3382,234.158 35.6716,233.492 35.5,232.5 Z"/></g>
<g><path style="opacity:1" fill="#473046" d="M 210.5,233.5 C 209.92,235.749 208.587,237.415 206.5,238.5C 207.08,236.251 208.413,234.585 210.5,233.5 Z"/></g>
<g><path style="opacity:1" fill="#3d5057" d="M 153.5,218.5 C 147.341,225.468 141.174,232.468 135,239.5C 132.676,242.48 131.176,245.813 130.5,249.5C 130.167,249.5 129.833,249.5 129.5,249.5C 125.591,245.683 123.258,241.016 122.5,235.5C 124.341,237.849 125.674,240.515 126.5,243.5C 126.908,244.643 127.575,245.643 128.5,246.5C 133.1,236.951 138.433,227.951 144.5,219.5C 143.145,221.68 143.311,223.68 145,225.5C 147.436,222.553 150.269,220.22 153.5,218.5 Z"/></g>
<g><path style="opacity:1" fill="#3f343a" d="M 191.5,231.5 C 189.042,237.736 185.542,243.403 181,248.5C 180.235,246.934 180.402,245.601 181.5,244.5C 181.81,245.738 182.31,245.738 183,244.5C 185.36,239.76 188.193,235.426 191.5,231.5 Z"/></g>
<g><path style="opacity:0.004" fill="#272727" d="M 26.5,244.5 C 25.8333,244.5 25.5,244.833 25.5,245.5C 24.2875,244.503 24.4542,243.503 26,242.5C 26.4643,243.094 26.631,243.761 26.5,244.5 Z"/></g>
<g><path style="opacity:1" fill="#4b384a" d="M 139.5,239.5 C 138.502,243.505 136.502,246.839 133.5,249.5C 135,245.827 137,242.494 139.5,239.5 Z"/></g>
<g><path style="opacity:1" fill="#41464f" d="M 53.5,244.5 C 55.914,245.911 57.5806,247.911 58.5,250.5C 56.086,249.089 54.4194,247.089 53.5,244.5 Z"/></g>
<g><path style="opacity:0.008" fill="#3e3e3e" d="M 238.5,249.5 C 238.167,249.5 237.833,249.5 237.5,249.5C 237.833,244.167 238.167,244.167 238.5,249.5 Z"/></g>
<g><path style="opacity:1" fill="#3a4b52" d="M 58.5,250.5 C 60.5,251.833 62.1667,253.5 63.5,255.5C 62.8333,255.5 62.1667,255.5 61.5,255.5C 60.075,254.078 59.075,252.411 58.5,250.5 Z"/></g>
<g><path style="opacity:0.012" fill="#757575" d="M 238.5,249.5 C 239.461,251.265 239.795,253.265 239.5,255.5C 239.167,255.5 238.833,255.5 238.5,255.5C 238.5,253.5 238.5,251.5 238.5,249.5 Z"/></g>
<g><path style="opacity:0.016" fill="#797979" d="M 19.5,255.5 C 19.1667,255.5 18.8333,255.5 18.5,255.5C 18.8333,252.833 19.1667,252.833 19.5,255.5 Z"/></g>
<g><path style="opacity:0.988" fill="#494848" d="M 226.5,230.5 C 231.461,236.09 235.128,242.424 237.5,249.5C 237.5,251.5 237.5,253.5 237.5,255.5C 225.833,255.5 214.167,255.5 202.5,255.5C 202.263,254.209 202.596,253.209 203.5,252.5C 213.111,254.474 223.111,255.141 233.5,254.5C 232.315,246.14 229.982,238.14 226.5,230.5 Z"/></g>
</svg>
